<?xml version="1.0" encoding="UTF-8" standalone="no"?>
<!-- Created with Inkscape (http://www.inkscape.org/) -->

<svg
   width="100"
   height="300"
   viewBox="0 0 26.458333 79.375"
   version="1.1"
   id="svg1"
   xml:space="preserve"
   inkscape:version="1.4.2 (f4327f4, 2025-05-13)"
   sodipodi:docname="calimali-body-back.svg"
   xmlns:inkscape="http://www.inkscape.org/namespaces/inkscape"
   xmlns:sodipodi="http://sodipodi.sourceforge.net/DTD/sodipodi-0.dtd"
   xmlns="http://www.w3.org/2000/svg"
   xmlns:svg="http://www.w3.org/2000/svg"><sodipodi:namedview
     id="namedview1"
     pagecolor="#ffffff"
     bordercolor="#000000"
     borderopacity="0.25"
     inkscape:showpageshadow="2"
     inkscape:pageopacity="0.0"
     inkscape:pagecheckerboard="0"
     inkscape:deskcolor="#d1d1d1"
     inkscape:document-units="mm"
     inkscape:zoom="4"
     inkscape:cx="18.625"
     inkscape:cy="160.875"
     inkscape:window-width="1920"
     inkscape:window-height="1009"
     inkscape:window-x="-8"
     inkscape:window-y="-8"
     inkscape:window-maximized="1"
     inkscape:current-layer="svg1"
     showguides="true"><inkscape:page
       x="0"
       y="0"
       width="26.458332"
       height="79.375"
       id="page2"
       margin="0"
       bleed="0" /></sodipodi:namedview><defs
     id="defs1" /><path
     id="path1"
     style="fill:#000000;stroke-width:0.26458332;stroke-dasharray:none;opacity:1;paint-order:normal;fill-opacity:1;stroke:none;stroke-opacity:0"
     inkscape:label="MainLayer"
     d="M 13.388847 4.9609375 C 12.260195 4.9137201 11.116093 5.3665113 10.510986 6.2445801 C 10.004056 6.9801901 9.8524609 7.504841 9.8474609 8.542631 C 9.8433409 9.402151 9.8286755 9.4843643 9.6423055 9.6712443 C 9.4570855 9.8570043 9.4442247 9.9247381 9.4795247 10.534241 C 9.5316547 11.434681 9.8622531 12.145512 10.228833 12.145512 C 10.428263 12.145512 10.484706 12.189943 10.527006 12.378573 C 10.555766 12.506623 10.656899 12.861028 10.751799 13.166638 C 10.888609 13.607148 10.912503 13.836217 10.866003 14.270447 C 10.833713 14.571687 10.780998 14.859401 10.748698 14.910201 C 10.716388 14.961031 10.327575 15.203223 9.8851847 15.448153 C 9.4428047 15.693083 8.8761201 16.031118 8.6258301 16.199528 C 7.9163141 16.676918 7.6614845 16.801935 7.3948975 16.802075 C 6.9431345 16.802315 6.0381614 16.99148 5.6714884 17.16226 C 5.2230514 17.37113 3.7017914 18.952933 3.4680054 19.453593 C 3.1071594 20.226353 3.0198959 21.394502 3.2080729 22.925732 L 3.3036743 23.70553 L 3.0421916 24.223328 C 2.5138845 25.269898 2.414518 25.848895 2.352828 28.232385 C 2.300131 30.268275 2.2830014 30.439497 2.0536214 31.237887 C 1.8324374 32.007757 1.8102362 32.203618 1.8107422 33.396928 C 1.8112762 34.655828 1.8241217 34.753841 2.1254517 35.809701 C 2.2982167 36.415061 2.6847459 37.520295 2.984314 38.265365 C 3.283883 39.010435 3.5700808 39.829299 3.6204508 40.085409 C 3.6708208 40.341529 3.8110817 40.76688 3.9320597 41.03057 C 4.1459647 41.49679 4.1495964 41.530867 4.0555664 42.264087 C 3.8992434 43.483047 3.9253747 44.079471 4.1491007 44.382821 C 4.2538757 44.524891 4.4538181 44.80158 4.5935181 44.99777 C 5.0996171 45.70852 5.2034039 45.784191 5.5872559 45.722791 C 5.7776909 45.692341 6.1037002 45.551942 6.3122762 45.411182 C 6.5208532 45.270452 6.7174321 45.186413 6.7489421 45.224113 C 6.7804521 45.261853 6.8737446 45.787664 6.9561646 46.393034 C 7.2802856 48.773654 7.6357106 50.215949 8.2015666 51.448539 C 8.4737396 52.041369 8.5291534 52.243501 8.4847534 52.480001 C 8.4179434 52.836141 8.5812376 54.707844 8.7539876 55.565084 C 8.8784976 56.182934 8.877913 56.188528 8.623763 56.961898 C 8.167219 58.351108 8.0658252 59.027687 8.0708252 60.659347 C 8.0765902 62.554847 8.2507286 63.481206 9.0413086 65.824406 C 9.8619586 68.256766 10.208415 69.849349 10.222115 71.255599 C 10.224815 71.533199 9.6635117 72.295191 8.8635417 73.099931 C 8.5408317 73.424571 8.2773277 73.758821 8.2780477 73.842521 C 8.2816877 74.270471 8.6666903 74.383295 9.9146403 74.322595 C 10.43399 74.297295 11.06877 74.315503 11.32489 74.362903 C 11.88762 74.466953 12.47302 74.419428 12.73359 74.248698 C 13.03474 74.051378 13.063956 73.629247 12.857096 72.479297 C 12.556646 70.809077 12.505887 70.280353 12.452987 68.279553 C 12.420587 67.055093 12.436545 66.117477 12.497945 65.654907 C 12.588145 64.975277 13.067071 62.542354 13.164571 62.268034 C 13.227921 62.089864 13.75006 64.474692 13.91543 65.697282 C 14.12515 67.247702 13.965291 70.351776 13.567131 72.458626 C 13.287171 73.939996 13.456167 74.390674 14.289567 74.386674 C 16.498107 74.375824 17.844512 74.311224 17.965312 74.210974 C 18.223262 73.996894 18.124772 73.675112 17.665072 73.229122 C 17.426882 72.998042 17.003464 72.523656 16.724044 72.174406 L 16.216064 71.539303 L 16.269808 70.683024 C 16.378928 68.953714 16.634553 67.888421 17.546733 65.358801 C 18.185263 63.588061 18.309477 62.841641 18.309477 60.786471 C 18.309477 58.840461 18.225048 58.238388 17.753438 56.822888 C 17.584438 56.314668 17.529339 56.031354 17.580839 55.934054 C 17.702909 55.703294 17.928621 53.733113 17.928621 52.899613 C 17.928621 52.236863 17.961664 52.057489 18.170984 51.590649 C 18.727704 50.348999 19.1243 48.769153 19.45411 46.477783 C 19.55465 45.779283 19.650083 45.194738 19.665983 45.178638 L 19.6665 45.178121 L 19.667017 45.178121 L 19.667533 45.177604 L 19.66805 45.177604 L 19.668567 45.177087 C 19.699002 45.172703 19.882595 45.278325 20.089213 45.420483 C 20.305993 45.569633 20.630783 45.71151 20.811133 45.73571 C 21.182183 45.78548 21.337884 45.655784 22.053434 44.700114 L 22.433773 44.192135 L 22.377445 42.751396 C 22.321835 41.332476 22.323994 41.305692 22.527824 40.931352 C 22.641624 40.722352 22.755638 40.360613 22.781038 40.127783 C 22.806448 39.894943 22.983433 39.364327 23.174813 38.948527 C 23.577253 38.074187 24.008611 36.815745 24.380941 35.428845 C 24.601981 34.605675 24.643074 34.298253 24.647074 33.439303 C 24.651254 32.541853 24.618455 32.299851 24.365955 31.365011 C 24.080565 30.308261 24.080365 30.30372 24.070365 28.27476 C 24.059495 25.96091 23.993737 25.558158 23.428027 24.350968 C 23.107067 23.666038 23.093195 23.602674 23.171195 23.198584 C 23.313615 22.460694 23.364548 21.103624 23.271448 20.533114 C 23.131528 19.675944 22.816514 19.156519 21.823474 18.146179 C 20.816244 17.121409 20.511726 16.960979 19.277376 16.806209 C 18.639246 16.726189 18.518469 16.678239 17.810799 16.221749 C 17.386719 15.948199 16.753933 15.564114 16.404683 15.368054 C 16.055433 15.171984 15.738867 14.981641 15.701367 14.945341 C 15.663887 14.909011 15.596722 14.621187 15.552022 14.305587 C 15.478882 13.789057 15.492147 13.670222 15.683797 13.114962 C 15.800907 12.775692 15.896704 12.421413 15.896704 12.327413 C 15.896704 12.197363 15.961248 12.149692 16.165938 12.129492 C 16.389038 12.107492 16.467666 12.038192 16.627926 11.722282 C 17.029716 10.930262 17.087474 10.022385 16.759184 9.6567749 C 16.625634 9.5080149 16.598819 9.3382012 16.593819 8.6320312 C 16.584669 7.2235412 16.165768 6.2538753 15.284338 5.6017253 C 14.737776 5.1973365 14.066038 4.9892679 13.388847 4.9609375 z M 13.272058 5.2637614 C 15.029118 5.2789414 16.202231 6.4862506 16.301331 8.3814006 C 16.349441 9.3011906 16.172343 10.014417 15.646073 11.023617 C 15.452513 11.394727 15.367283 11.637533 15.430583 11.637533 C 15.568293 11.637533 16.187144 10.71101 16.371094 10.22935 C 16.542094 9.781608 16.656797 9.8720818 16.654797 10.452592 C 16.653167 10.929912 16.330228 11.752312 16.129248 11.791012 C 16.018788 11.812282 15.981453 11.763218 15.981453 11.596708 C 15.981453 11.189988 15.838312 11.454034 15.638322 12.229744 C 15.450012 12.960144 15.436049 12.984518 15.340149 12.760978 C 15.252339 12.556408 15.231435 12.545893 15.176335 12.678813 C 15.080805 12.909323 15.288733 14.861873 15.432133 15.080733 C 15.499933 15.184203 15.813225 15.409575 16.128215 15.581995 C 16.443195 15.754405 17.177043 16.180607 17.759123 16.528707 C 18.764933 17.130197 18.84479 17.162113 19.36781 17.176213 C 20.30457 17.201523 20.723343 17.412768 21.590413 18.296558 C 22.506363 19.230158 22.623906 19.399284 22.840466 20.092314 C 23.091416 20.895384 23.049003 23.194921 22.785173 23.093681 C 22.611293 23.026951 22.643601 23.190651 22.934001 23.852291 C 23.655931 25.497141 23.785326 26.200918 23.776326 28.425138 C 23.769366 30.147448 23.774996 30.205088 24.038326 31.176908 C 24.275386 32.051828 24.307761 32.304669 24.313761 33.312179 C 24.319281 34.310689 24.289884 34.567476 24.081734 35.344096 C 23.764244 36.528686 23.623614 36.944869 23.054924 38.379569 C 22.790044 39.047819 22.53645 39.822325 22.49165 40.100395 C 22.44526 40.388495 22.31546 40.749313 22.18986 40.939103 C 21.95431 41.294973 21.950152 41.467399 22.130432 43.475899 L 22.180558 44.029871 L 21.789884 44.48669 C 21.575274 44.73811 21.399727 44.987895 21.399727 45.041695 C 21.399727 45.202885 21.10422 45.41979 20.88503 45.41945 C 20.66763 45.41911 20.207485 45.173241 19.906795 44.897001 C 19.730695 44.735221 19.726669 44.686023 19.770369 43.106413 L 19.815328 41.482739 L 20.226672 40.988196 C 20.599382 40.540246 20.685701 40.339736 20.643701 40.020296 C 20.635931 39.961196 20.688907 39.459816 20.761007 38.905636 C 20.946647 37.478676 20.927609 37.092078 20.594609 35.481038 C 20.257139 33.848328 20.198936 32.445636 20.424076 31.375346 C 20.531447 30.864937 20.727268 30.292746 20.784778 30.289624 L 20.785295 30.289624 L 20.785811 30.289624 L 20.785811 30.290141 L 20.786328 30.290141 L 20.786845 30.290141 L 20.787362 30.290141 L 20.787878 30.290141 L 20.788395 30.290658 L 20.788912 30.290658 C 20.78913 30.290806 20.79025 30.291518 20.790462 30.291691 C 20.795412 30.296406 20.799025 30.3086 20.800281 30.327865 C 20.810111 30.478435 20.976497 30.459401 20.976497 30.307711 C 20.976497 30.238571 20.882518 29.856577 20.767208 29.458667 C 20.464698 28.414747 20.108576 26.470663 20.155876 26.119853 C 20.286986 25.146583 20.590896 23.819523 20.757906 23.491073 C 20.960616 23.092413 21.113641 22.00951 20.979081 21.92631 C 20.897381 21.87582 20.852758 21.999628 20.765658 22.512838 C 20.734498 22.696538 20.62201 23.020054 20.51606 23.232174 C 20.28815 23.688514 20.262092 23.790111 20.049422 25.034131 C 19.840522 26.256031 19.518795 27.172463 18.688265 28.909863 C 18.320975 29.678213 17.995512 30.411678 17.965312 30.539738 C 17.897732 30.825958 18.070175 30.860226 18.175635 30.581596 C 18.198129 30.522163 18.21524 30.48914 18.230412 30.488578 C 18.256108 30.48998 18.277669 30.585832 18.311544 30.806388 C 18.387054 31.298308 18.315583 32.757264 18.201473 33.057414 C 18.138063 33.224244 18.178376 33.400617 18.394226 33.904907 C 18.921376 35.136557 18.978351 35.431018 18.968351 36.889738 C 18.96349 37.636283 18.988748 38.153869 19.030363 38.176481 L 19.03088 38.176481 L 19.031396 38.176481 L 19.031913 38.176998 L 19.03243 38.176998 L 19.032947 38.176998 L 19.033464 38.176998 C 19.033638 38.176973 19.034839 38.177039 19.035014 38.176998 L 19.035531 38.176998 L 19.036047 38.176998 L 19.036047 38.176481 L 19.036564 38.176481 L 19.036564 38.175964 L 19.037081 38.175964 C 19.079481 38.149744 19.117313 38.063978 19.121313 37.985278 C 19.122362 37.964611 19.126424 37.952167 19.132682 37.947555 L 19.133199 37.947038 L 19.133716 37.947038 C 19.134208 37.946852 19.134948 37.946635 19.135266 37.946521 C 19.218225 37.92535 19.614635 38.893361 19.665983 39.284941 C 19.697583 39.525481 19.677291 39.93187 19.619991 40.21615 C 19.564061 40.49361 19.489176 41.692103 19.453076 42.879553 C 19.347206 46.366553 18.733701 49.613524 17.749821 51.896574 C 17.576266 52.299303 17.468781 52.644106 17.501774 52.684123 C 17.502922 52.685263 17.504458 52.686222 17.505908 52.686707 C 17.660968 52.738637 17.572706 54.581619 17.372066 55.484469 C 17.329256 55.677059 17.322865 55.678366 17.207735 55.526326 C 17.021295 55.280096 17.051405 55.527723 17.295585 56.247213 C 18.100595 58.619253 18.29169 60.980471 17.84904 63.084521 C 17.74967 63.556851 17.385387 64.787175 17.039787 65.818205 C 16.291577 68.050375 15.997085 69.393143 15.970085 70.692843 C 15.946485 71.829283 15.956576 71.851534 16.998446 72.958854 C 17.498886 73.490734 17.759117 73.830451 17.728117 73.911251 C 17.673997 74.052251 17.418139 74.065648 16.344739 73.982048 C 15.711299 73.932728 15.656923 73.914475 15.730823 73.776375 C 15.847213 73.558985 15.831329 73.277215 15.677079 72.824495 C 15.486259 72.264535 15.351132 72.215395 15.425932 72.733545 C 15.458882 72.961365 15.504651 73.228724 15.528251 73.327824 C 15.557541 73.451014 15.483493 73.608141 15.293123 73.824951 C 15.014903 74.141831 15.014454 74.141803 14.465784 74.097803 C 13.666494 74.033643 13.561801 73.81143 13.817761 72.72476 C 14.144671 71.33691 14.417507 68.031607 14.324707 66.586117 C 14.276107 65.828847 14.085104 64.745797 13.689604 62.987887 C 13.595304 62.568787 13.495729 61.749666 13.468429 61.167326 C 13.420899 60.153736 13.431656 60.05598 13.721126 58.88116 C 14.177386 57.02928 14.31807 56.252978 14.21567 56.150578 C 14.15546 56.090388 14.109158 56.13857 14.067358 56.30509 C 14.013118 56.52114 13.999785 56.529515 13.941785 56.381055 C 13.831515 56.099015 13.856013 55.165043 14.004313 54.008073 C 14.145713 52.904833 14.145304 52.89693 13.921114 51.04443 C 13.599954 48.39037 13.526536 47.198441 13.526306 44.649471 L 13.526306 42.397412 L 13.956771 42.610836 C 14.755231 43.005986 16.081119 42.955234 17.001029 42.494564 C 17.477359 42.256034 18.041819 41.655217 18.178219 41.241927 C 18.342759 40.743327 18.236443 40.69938 17.957043 41.15046 C 17.596893 41.7319 17.284431 42.02228 16.743681 42.27804 C 16.326201 42.47549 16.176895 42.498698 15.303975 42.498698 C 14.449705 42.498698 14.285609 42.474491 13.965039 42.303361 C 13.764089 42.196081 13.523605 41.979683 13.430705 41.822253 L 13.261723 41.535966 L 12.864848 41.945243 C 12.398238 42.426243 12.069976 42.539876 11.141956 42.540556 C 10.378066 42.541106 9.5943135 42.323342 9.1555135 41.988652 C 8.9898635 41.862312 8.7236316 41.554052 8.5633016 41.303422 C 8.2367126 40.792882 8.0796291 40.709945 8.1938151 41.108085 C 8.5099941 42.210565 9.7767991 42.927651 11.301119 42.867151 C 11.914799 42.842781 12.132608 42.795252 12.492778 42.608252 L 12.933577 42.379842 L 12.933577 44.430363 C 12.933577 46.932213 12.826605 48.695789 12.550655 50.741089 C 12.308655 52.534919 12.293437 53.223814 12.473657 54.225114 C 12.608257 54.972694 12.568793 56.510763 12.415263 56.510763 C 12.374263 56.510763 12.340849 56.436831 12.340849 56.346431 C 12.340849 56.256051 12.302699 56.158707 12.256099 56.129907 C 12.057279 56.007027 12.288065 57.42198 12.724805 59.00415 C 13.136975 60.49731 13.098445 61.334004 12.497945 63.960954 C 12.200245 65.263424 12.153305 65.614427 12.111405 66.852767 C 12.056295 68.480867 12.243674 70.911345 12.542904 72.449325 C 12.715094 73.334515 12.719403 73.855675 12.555823 74.019255 C 12.523743 74.051255 12.261583 74.085736 11.972913 74.095736 C 11.519933 74.111356 11.408953 74.083291 11.164693 73.892131 L 10.882023 73.670955 L 10.934733 72.986243 C 10.964198 72.605008 10.973891 72.440298 10.951786 72.414701 L 10.95127 72.414185 C 10.95103 72.413989 10.949966 72.413319 10.949719 72.413151 L 10.949202 72.413151 L 10.949202 72.412634 L 10.948686 72.412634 L 10.948169 72.412634 C 10.947901 72.412549 10.946894 72.412176 10.946619 72.412118 L 10.946102 72.412118 C 10.929915 72.411679 10.902078 72.45318 10.862386 72.523739 C 10.666156 72.872659 10.552944 73.491886 10.642244 73.726766 L 10.720276 73.932955 L 9.8433268 73.9929 C 8.9826368 74.05157 8.6154948 74.013986 8.6154948 73.867326 C 8.6154948 73.826726 8.9115358 73.49569 9.2733358 73.13197 C 9.6351458 72.76826 10.054115 72.28318 10.204545 72.054 C 10.453445 71.6748 10.477913 71.57831 10.477913 70.98068 C 10.477913 69.60033 10.116669 67.924062 9.343099 65.716402 C 9.089979 64.994042 8.7850109 64.008665 8.6656209 63.526355 C 8.4321809 62.583325 8.2610553 61.081369 8.3183553 60.480029 C 8.3377553 60.276119 8.3760214 59.842741 8.4036214 59.516781 C 8.4753814 58.668201 8.757248 57.369872 9.090918 56.349532 C 9.378468 55.470102 9.4006891 55.23502 9.1673991 55.54338 C 9.0994891 55.63318 9.0427918 55.668528 9.0407918 55.621928 C 9.0389418 55.575358 8.980584 55.08135 8.911084 54.52432 C 8.756644 53.28587 8.7496096 52.727122 8.8878296 52.681022 C 8.9603796 52.656832 8.9206309 52.490209 8.7534709 52.117749 C 7.7322539 49.842169 7.0213619 46.231687 6.9597819 43.006677 C 6.9419989 42.075347 6.882667 40.981024 6.828007 40.574784 C 6.702941 39.645334 6.7646584 38.997924 7.0398804 38.350114 C 7.2236594 37.917534 7.2635981 37.870084 7.3101481 38.032304 C 7.4315851 38.455484 7.4755624 38.160716 7.4739624 36.931596 C 7.4720704 35.502076 7.5978416 34.803647 8.0325846 33.833077 C 8.2425086 33.364417 8.2629848 33.250542 8.1922648 32.944242 C 8.1476548 32.750982 8.1124166 32.097495 8.1137166 31.492135 C 8.1159246 30.467265 8.1253689 30.404216 8.2491089 30.581596 C 8.3221889 30.686396 8.4125134 30.772282 8.4496134 30.772282 C 8.5947234 30.772282 8.3183885 30.073231 7.5964355 28.613241 C 6.7981205 26.998821 6.5344156 26.199242 6.2895386 24.650692 C 6.2173336 24.194082 6.0669958 23.60328 5.9557088 23.33811 C 5.8444218 23.07293 5.7094855 22.684664 5.6559855 22.475114 C 5.5017195 21.870914 5.4824354 21.829865 5.4084554 21.949565 C 5.3019184 22.121945 5.461499 23.118158 5.657019 23.501408 C 5.757173 23.697728 5.9120273 24.261305 6.0006673 24.754045 C 6.0893093 25.246785 6.2032518 25.77609 6.2538818 25.9302 C 6.3570948 26.24436 6.1533327 27.515726 5.7629557 28.994096 C 5.4354907 30.234206 5.4035945 30.383217 5.4565145 30.431217 C 5.4835945 30.455817 5.5225409 30.428439 5.5433309 30.370239 C 5.6201669 30.155099 5.7177351 30.276885 5.8477051 30.751095 C 6.2330811 32.157205 6.2360774 33.529568 5.8580404 35.302238 C 5.4825004 37.063208 5.4597816 37.351143 5.6053426 38.470003 C 5.6775806 39.025293 5.7366007 39.65141 5.7366007 39.86165 C 5.7366007 40.37369 5.8550684 40.658146 6.2285604 41.042456 C 6.5303564 41.352996 6.5428466 41.390087 6.5964966 42.142647 C 6.6270466 42.571187 6.6556586 43.323953 6.6600586 43.815413 L 6.6678101 44.708899 L 6.3928914 44.969348 C 5.8172564 45.514198 5.3110997 45.58544 5.0766927 45.15435 C 4.9973677 45.00847 4.7855114 44.715683 4.6059204 44.503743 L 4.2793254 44.118754 L 4.3403035 42.697135 C 4.3986815 41.335905 4.3935309 41.262015 4.2188639 40.965975 C 4.1185329 40.795925 3.9840842 40.385586 3.9201742 40.053886 C 3.8562602 39.722186 3.5784946 38.917295 3.3031576 38.265365 C 2.7693235 37.001375 2.4671916 36.013895 2.1760946 34.582385 C 1.9476956 33.459205 1.9946849 32.7268 2.3967529 31.1304 C 2.6871079 29.97754 2.687501 29.971738 2.668571 28.193628 C 2.646743 26.143088 2.7312829 25.65723 3.400826 23.98975 C 3.639571 23.39516 3.7338782 23.070665 3.6592082 23.099365 C 3.4914702 23.163725 3.4181798 22.700329 3.4209798 21.586279 C 3.4248848 20.012389 3.6655785 19.460683 4.8798055 18.238163 C 5.7028305 17.409523 6.1154738 17.209846 7.0739868 17.177246 C 7.5788308 17.160086 7.6696264 17.121527 8.8092814 16.439307 C 9.4708414 16.043297 10.221883 15.610438 10.477913 15.477608 C 10.856673 15.281118 10.962571 15.177253 11.046871 14.919503 C 11.195241 14.465653 11.297527 12.523348 11.168827 12.602848 C 11.114827 12.636208 11.069058 12.747315 11.068058 12.849345 C 11.064098 13.134785 10.941636 12.877498 10.774536 12.232328 C 10.696426 11.930728 10.590158 11.606676 10.537858 11.512476 C 10.448558 11.351596 10.439548 11.356608 10.395748 11.595158 C 10.335838 11.921108 10.218287 11.904201 10.038147 11.543481 C 9.8012571 11.069121 9.6797966 10.408261 9.7714966 10.094991 L 9.8526286 9.8174886 L 10.12238 10.367843 C 10.44667 11.030093 11.001672 11.801443 11.049972 11.656653 C 11.069052 11.599393 10.975022 11.371811 10.840682 11.150741 C 9.8590721 9.5352872 9.8265325 7.7601164 10.753866 6.4016764 C 11.235736 5.6957864 12.211978 5.2547614 13.272058 5.2637614 z M 19.854602 27.131677 C 19.855732 27.131564 19.857076 27.131677 19.858219 27.131677 L 19.858736 27.131677 L 19.859253 27.131677 L 19.859253 27.132194 L 19.85977 27.132194 C 19.898388 27.148093 19.99695 27.493878 20.080945 27.914575 C 20.166935 28.345315 20.324995 28.942666 20.432345 29.241626 C 20.605245 29.723206 20.61421 29.810738 20.51141 30.009538 C 20.47086 30.087944 20.388577 30.370073 20.315039 30.605367 C 20.254921 30.80092 20.200421 30.958231 20.158459 31.132467 C 20.129893 31.249565 20.111802 31.366948 20.09283 31.484383 C 20.06155 31.715774 20.044018 32.016399 20.029268 32.322058 C 20.020001 32.530444 20.009123 32.71458 20.009115 33.058447 C 20.009075 34.344717 20.030233 34.543361 20.280933 35.566821 C 20.443759 36.231549 20.520247 36.787932 20.540865 37.400818 C 20.558992 37.939651 20.536283 38.517227 20.4587 39.31853 C 20.38667 40.06257 20.320424 40.362914 20.183264 40.571684 L 20.183781 40.571684 C 20.084551 40.722704 19.981138 40.846799 19.954338 40.847119 L 19.953821 40.847119 L 19.953821 40.846602 L 19.953304 40.846602 L 19.952787 40.846602 L 19.952787 40.846086 L 19.952271 40.846086 L 19.951754 40.845569 L 19.951754 40.845052 L 19.951237 40.845052 C 19.927745 40.809102 19.923661 40.410607 19.943486 39.929346 L 19.981726 39.011572 L 19.632393 38.194568 C 19.298993 37.414178 19.283577 37.338852 19.283577 36.505782 C 19.283577 36.382678 19.281573 36.266154 19.277376 36.154382 C 19.275869 36.117847 19.274391 36.082264 19.272725 36.047929 C 19.261756 35.821823 19.239843 35.667599 19.217432 35.50636 C 19.142859 35.021539 18.997746 34.587683 18.741492 34.033065 C 18.592935 33.711542 18.523126 33.535943 18.503263 33.378324 L 18.503263 33.377808 L 18.503263 33.377291 L 18.502747 33.377291 L 18.502747 33.376774 L 18.502747 33.376257 L 18.502747 33.375741 C 18.489832 33.270592 18.499271 33.173207 18.522384 33.045528 C 18.542016 32.937079 18.551909 32.787269 18.566825 32.656921 C 18.619732 32.066662 18.640728 31.190454 18.610234 30.603817 C 18.609224 30.590651 18.609233 30.575497 18.608167 30.562476 L 18.546155 29.802315 L 19.168856 28.597738 C 19.511386 27.935188 19.791557 27.334419 19.791557 27.262419 C 19.791557 27.192727 19.819573 27.1352 19.854602 27.131677 z M 6.4766073 27.271204 L 6.477124 27.271204 L 6.4776408 27.271204 L 6.4781576 27.271204 L 6.4786743 27.271204 C 6.5387992 27.269389 6.7901009 27.694724 7.1716553 28.445809 L 7.8356974 29.753223 L 7.7917725 30.961418 C 7.7650025 31.691198 7.786326 32.417017 7.845516 32.794897 C 7.9433 33.419157 7.9428913 33.421879 7.6408773 34.125049 C 7.3451436 34.813586 7.1859246 35.401391 7.1458171 35.965763 C 7.140831 36.065092 7.1374211 36.174703 7.1354818 36.290291 C 7.1365181 36.389779 7.1405352 36.489171 7.1489176 36.588464 C 7.1971936 37.160314 7.1808131 37.242605 6.8848511 37.931535 C 6.4640511 38.911065 6.3643584 39.476973 6.4740234 40.266793 C 6.5216234 40.609583 6.5534034 40.899181 6.5443034 40.910681 L 6.5437866 40.911198 L 6.5432699 40.911198 L 6.5432699 40.911715 L 6.5427531 40.911715 L 6.5422363 40.911715 C 6.5244741 40.912144 6.4388662 40.837182 6.3443156 40.736532 C 6.1302336 40.508652 6.0396762 40.056177 5.8978312 38.507727 C 5.7834562 37.259157 5.8204128 36.772214 6.1179728 35.598344 C 6.1872723 35.32496 6.2407095 35.056258 6.2890218 34.789091 C 6.3003779 34.725014 6.3149995 34.659347 6.3251953 34.595821 C 6.3693122 34.324878 6.4016896 34.057363 6.4238973 33.793286 C 6.42837 33.740822 6.4290597 33.689853 6.4326823 33.63774 C 6.436257 33.455878 6.4380579 33.261201 6.4378499 33.007804 C 6.4376061 32.711951 6.4340752 32.472842 6.4259644 32.256946 C 6.423037 32.221734 6.4195074 32.186601 6.4161458 32.151526 C 6.349266 31.471979 6.2039257 30.819603 5.9737956 30.199707 L 5.808431 29.753739 L 6.0213379 29.098999 C 6.1383789 28.738789 6.2770962 28.215163 6.3298462 27.935763 C 6.3825942 27.656363 6.4442187 27.363106 6.4667887 27.283606 C 6.4678974 27.279703 6.4699687 27.275891 6.4719564 27.273787 L 6.4724731 27.273271 L 6.4729899 27.272754 L 6.4735067 27.272754 L 6.4740234 27.272237 L 6.4745402 27.272237 C 6.4749925 27.272027 6.4760728 27.271393 6.4766073 27.271204 z M 13.232267 46.647282 L 13.341305 48.213595 C 13.401275 49.075085 13.506182 50.237066 13.574882 50.795866 C 13.791262 52.554796 13.810115 53.26702 13.662215 54.09799 C 13.588444 54.512071 13.552906 54.809682 13.542843 55.105164 C 13.540925 55.173676 13.536939 55.241725 13.537675 55.311869 C 13.538629 55.377387 13.546047 55.451587 13.550077 55.520125 C 13.558583 55.717207 13.592774 55.964137 13.621391 56.19657 C 13.636778 56.304454 13.646483 56.392643 13.666349 56.517997 L 13.808459 57.414067 L 13.546977 58.338558 L 13.547493 58.338558 C 13.403813 58.846868 13.269737 59.338931 13.249837 59.432031 C 13.204127 59.646091 13.19649 59.624253 12.85813 58.331323 C 12.5925 57.316283 12.592451 57.314819 12.720671 56.651839 C 12.886831 55.793949 12.883589 54.900268 12.711369 53.841158 C 12.649182 53.459526 12.616973 53.229749 12.615251 52.982812 L 12.615251 52.982296 L 12.6137 52.97196 L 12.615251 52.959558 L 12.615251 52.959041 C 12.615347 52.958509 12.615671 52.957507 12.615767 52.956974 L 12.615767 52.956458 C 12.616137 52.701395 12.648075 52.422886 12.712402 51.935848 C 12.868117 50.756934 13.054397 48.931107 13.154753 47.634302 C 13.15615 47.611596 13.165012 47.539408 13.166121 47.519063 L 13.232267 46.647282 z " /><path
     id="path26"
     style="fill:#000000;stroke-width:0.945;stroke-linecap:round;stroke-linejoin:round;paint-order:stroke fill markers"
     d="M 74.941407 102.86719 L 74.939454 102.86914 L 74.937501 102.86914 L 74.935548 102.86914 C 74.912218 102.88611 74.894701 102.9513 74.890626 103.06445 C 74.881911 103.30645 73.833097 105.6127 72.560548 108.18945 L 70.248048 112.875 L 70.396485 115.125 C 70.477868 116.3625 70.443135 119.4195 70.320313 121.91797 L 70.097657 126.46094 L 71.021485 128.66797 C 72.424902 132.01928 72.804765 133.76203 73.001954 137.75977 C 73.179223 141.35363 73.187123 141.39329 74.433595 144.44727 L 75.687501 147.52149 L 75.507813 150.79102 C 75.367771 153.32317 75.394515 154.01792 75.628907 153.87305 C 76.730728 153.19209 77.449891 148.76793 77.437501 142.75 C 77.429584 138.90571 77.372707 138.47082 76.142579 132.75 C 75.725083 130.8084 75.63256 129.46258 75.63086 125.375 C 75.628581 119.75596 75.812627 118.229 76.910157 114.80274 L 77.677735 112.41016 L 76.919923 109.89258 C 76.503501 108.50769 75.987264 106.57498 75.773438 105.59766 C 75.41374 103.9536 75.077958 102.86891 74.947267 102.86719 L 74.945313 102.86719 L 74.94336 102.86719 L 74.941407 102.86719 z M 24.623047 103.5 C 24.531241 103.53445 24.314583 104.28113 24.138672 105.1875 C 23.958539 106.11562 23.438579 108.11869 22.982422 109.63867 L 22.152344 112.40235 L 22.980469 115.01367 C 24.171449 118.77338 24.456157 121.142 24.31836 126.125 C 24.216169 129.82041 24.083662 130.89696 23.306641 134.375 C 22.107628 139.74192 22.011342 141.10338 22.480469 146 C 22.954432 150.94709 23.223855 152.36983 23.894532 153.47266 C 24.156164 153.90288 24.410327 154.22184 24.484375 154.2168 L 24.486328 154.2168 L 24.488282 154.2168 L 24.490235 154.21485 L 24.492188 154.21485 L 24.494141 154.21485 L 24.494141 154.21289 L 24.496094 154.21289 L 24.498047 154.21094 L 24.498047 154.20899 C 24.546016 154.13191 24.480219 153.2587 24.347657 152.2461 C 23.949133 149.20191 24.202584 147.74763 25.898438 143.33203 C 26.823416 140.92361 26.875 140.63993 26.875 138.00586 C 26.875 134.74044 27.304435 132.59537 28.625 129.25 L 29.5625 126.875 L 29.44336 119.5 L 29.326172 112.125 L 27.056641 107.8125 C 25.80841 105.44062 24.714893 103.5 24.626953 103.5 L 24.625 103.5 L 24.623047 103.5 z M 50.021485 178.125 L 49.462891 184.26172 C 49.155588 187.63674 48.673801 192.27276 48.390626 194.56446 C 47.786249 199.4556 47.767548 200.76813 48.253907 204.125 C 48.734696 207.44343 48.716972 210.98224 48.207032 214.13282 L 47.791016 216.71094 L 48.736329 220.41797 C 49.256255 222.4571 49.742007 224.22725 49.816407 224.35157 L 49.81836 224.35352 L 49.820313 224.35547 L 49.822266 224.35547 L 49.822266 224.35742 L 49.824219 224.35742 L 49.826173 224.35742 L 49.828126 224.35742 L 49.830079 224.35742 L 49.832032 224.35742 L 49.833985 224.35547 C 49.834999 224.3548 49.838778 224.35244 49.839844 224.35157 C 49.971756 224.22492 50.465438 222.71324 50.994141 220.79688 L 52.03711 217.01758 L 51.593751 214.07227 C 51.047565 210.44474 51.019169 207.32525 51.503907 204.375 C 52.009907 201.29534 51.972588 199.53853 51.261719 192.73828 C 50.924629 189.51364 50.508369 184.90625 50.335938 182.5 L 50.021485 178.125 z "
     transform="scale(0.26458333)"
     inkscape:label="DONOTRENDER" /><g
     id="g13"
     transform="translate(-91.629899,-108.81136)"
     style="display:inline"><path
       style="fill:#efefef;fill-opacity:1;stroke:#d8d8d8;stroke-width:0.1;stroke-linecap:round;stroke-linejoin:round;stroke-opacity:1"
       d="m 100.54881,171.72344 -0.26024,-2.50477 0.29277,-1.85419 0.24397,-1.25238 0.37409,-1.08974 0.31716,-0.36596 0.39849,-0.13011 0.553,0.0325 0.54488,0.26023 0.39035,0.53673 0.26836,1.35811 0.42289,2.17135 -0.0325,2.15508 -0.52047,2.43972 -0.52048,0.48794 -0.61806,0.0651 -0.48794,-0.16265 -0.45542,-0.22771 -0.39035,-0.553 z"
       id="path13"
       inkscape:label="back_calves_left"
       sodipodi:nodetypes="cccccccccccccccccccc" /><path
       style="fill:#efefef;fill-opacity:1;stroke:#d8d8d8;stroke-width:0.1;stroke-linecap:round;stroke-linejoin:round;stroke-opacity:1"
       d="m 99.29691,150.64148 1.2089,0.89361 0.68889,0.30181 0.63222,0.21934 0.648,0.13522 0.67378,0.023 0.63222,-0.0297 0.0943,2.47862 0.001,2.02532 -0.092,2.4382 -0.18402,1.51812 -0.18401,0.96608 -0.36803,0.13801 -0.80507,-0.16101 -0.50604,-0.20702 -0.59526,-0.25976 -0.53183,-0.4073 -0.966079,-4.43936 -0.184015,-2.73722 -0.126167,-1.75488 z"
       id="path12"
       inkscape:label="back_hamstrings_left"
       sodipodi:nodetypes="ccccccccccccccccccccc" /><path
       style="fill:#efefef;fill-opacity:1;stroke:#d8d8d8;stroke-width:0.1;stroke-linecap:round;stroke-linejoin:round;stroke-opacity:1"
       d="m 96.075997,147.70038 -0.471679,-1.69154 -0.357825,-3.0903 0.01627,-1.39877 0.333427,-0.70753 0.390355,-0.48794 0.431016,-0.30903 0.487941,-0.008 0.276503,0.26023 0.170779,0.54487 0.08946,1.18732 -0.162648,1.32558 -0.406621,1.77287 0.01626,2.13068 0.260236,1.23612 0.03253,0.61806 v 0.48795 l -0.211441,0.2277 -0.268371,-0.0976 -0.309027,-0.69126 z"
       id="path8"
       sodipodi:nodetypes="ccccccccccccccccccccc"
       inkscape:label="back_forearm_extensors_left" /><path
       style="fill:#efefef;fill-opacity:1;stroke:#d8d8d8;stroke-width:0.1;stroke-linecap:round;stroke-linejoin:round;stroke-opacity:1"
       d="m 99.690055,147.13139 0.184014,1.69063 0.782061,1.38012 0.94308,0.50604 0.57505,0.25302 0.87407,0.046 0.69005,-0.29902 0.50604,-0.29903 0.23002,-0.64405 0.046,-1.42611 v -3.01325 l -0.006,-1.08684 -0.10863,-0.35973 -0.26533,-0.30395 -0.28696,-0.28875 -0.28752,-0.24094 -0.24424,-0.26525 -0.35784,-0.32529 -0.47167,-0.23588 -0.40498,-0.0184 -0.51072,0.13594 -0.4489,0.20726 -0.55383,0.31264 -0.36316,0.43973 -0.371295,0.65058 -0.163472,0.70973 -0.06472,1.11308 z"
       id="path11"
       sodipodi:nodetypes="cccccccccccccccccccccccccccc"
       inkscape:label="back_glutes_left" /><path
       style="fill:#efefef;fill-opacity:1;stroke:#d8d8d8;stroke-width:0.1;stroke-linecap:round;stroke-linejoin:round;stroke-opacity:1"
       d="m 99.947012,140.45442 0.09759,-0.553 0.21144,-0.16265 0.24397,-0.10572 0.23584,-0.0569 0.24397,0.16264 -0.0205,0.21144 -0.0244,0.29684 -0.004,0.28869 0.0732,0.28871 0.0488,0.24803 -0.0121,0.30903 -0.15045,0.16269 -0.22772,0.0651 -0.43101,0.12199 -0.20331,-0.13012 -0.04879,-0.24398 -0.0244,-0.31716 -0.0081,-0.34969 z"
       id="path10"
       sodipodi:nodetypes="cccccccccccccccccccc"
       inkscape:label="back_obliques_left" /><path
       style="fill:#efefef;fill-opacity:1;stroke:#d8d8d8;stroke-width:0.1;stroke-linecap:round;stroke-linejoin:round;stroke-opacity:1"
       d="m 101.24268,140.48385 0.092,-0.48304 0.18401,-0.16101 0.34503,-0.16101 0.32203,-0.18402 0.34502,-0.40253 0.27603,-0.50604 0.26452,-0.52904 0.23002,-0.62106 0.28752,-0.64405 0.20702,-0.37953 0.19551,-0.18401 0.18402,-0.0115 0.12651,0.13801 v 0.89707 l 0.0575,3.18576 -0.0575,0.98908 -0.046,0.90857 -0.046,0.43704 -0.16101,0.092 -0.24152,-0.069 -0.17252,-0.21852 -0.50604,-0.64405 -0.74756,-0.50604 -0.71306,-0.32203 -0.32202,-0.21851 z"
       id="path9"
       inkscape:label="back_erectors_left" /><path
       style="fill:#efefef;fill-opacity:1;stroke:#d8d8d8;stroke-width:0.1;stroke-linecap:round;stroke-linejoin:round;stroke-opacity:1"
       d="m 97.41287,130.32853 1.104089,4.26684 0.425536,1.44912 0.782063,1.73664 0.954572,1.47212 0.52905,0.18402 0.29902,-0.069 0.52904,-0.27602 0.64406,-1.2421 0.82806,-1.88615 -0.023,-0.43704 -0.4224,-0.88571 -0.8887,-1.57549 -0.82807,-1.08109 -0.78206,-0.87407 -0.908577,-1.11559 -0.161013,-0.58654 -0.06901,-0.58655 -0.149513,-0.37953 h -0.299024 l -0.414033,0.29902 -0.529043,0.44854 -0.333525,0.46004 z"
       id="path7"
       sodipodi:nodetypes="cccccccccccccccccccccccc"
       inkscape:label="back_lats_left" /><path
       style="fill:#efefef;fill-opacity:1;stroke:#d8d8d8;stroke-width:0.1;stroke-linecap:round;stroke-linejoin:round;stroke-opacity:1"
       d="m 94.498315,138.52705 0.878298,-0.0488 0.406619,0.0488 0.357825,0.11385 0.504206,0.24397 0.357825,-0.60179 0.292767,-1.69154 0.292767,-1.106 0.04879,-0.73192 -0.16265,-1.00842 -0.243969,-0.91082 -0.227709,-0.52047 -0.390353,-0.56927 -0.634328,0.5042 -0.471678,0.6018 -0.553,0.92709 -0.309031,1.13854 -0.146383,1.106 -0.03253,0.92709 -0.03253,0.86204 z"
       id="path3"
       inkscape:label="back_triceps_left" /><path
       style="fill:#efefef;fill-opacity:1;stroke:#d8d8d8;stroke-width:0.1;stroke-linecap:round;stroke-linejoin:round;stroke-opacity:1"
       d="m 95.685643,131.87476 -0.276503,-1.77286 0.195178,-1.33372 0.536739,-0.95962 0.862031,-0.84576 0.683123,-0.47168 0.650589,-0.19518 0.504208,0.0325 0.439148,0.40662 0.357825,0.45541 0.08133,0.43915 -1.382506,0.79697 -0.927092,1.00842 -0.569267,0.86203 -0.520473,0.97589 -0.341561,0.66685 -0.227705,0.13012 z"
       id="path4"
       inkscape:label="back_rear_deltoids_left" /><path
       style="fill:#efefef;fill-opacity:1;stroke:#d8d8d8;stroke-width:0.1;stroke-linecap:round;stroke-linejoin:round;stroke-opacity:1"
       d="m 100.82865,128.08585 0.48303,0.24152 0.73607,0.43703 0.54054,0.27603 0.79356,0.37953 0.71306,0.32202 0.51754,0.24152 0.003,3.17617 -0.0651,1.07348 -0.0163,0.78071 -0.16264,0.65059 -0.13012,0.19517 -0.11385,0.0325 -0.17892,-0.16264 -0.81324,-1.87045 -0.87829,-1.31745 -0.62578,-0.86581 -0.62661,-0.72814 -0.50421,-0.47167 -0.42288,-0.37409 -0.211443,-0.43915 -0.105725,-0.56927 -0.02452,-0.61576 0.06924,-0.50241 0.325298,-0.43102 z"
       id="path6"
       sodipodi:nodetypes="cccccccccccccccccccccccccc"
       inkscape:label="back_lower_traps_left" /><path
       style="fill:#efefef;fill-opacity:1;stroke:#d8d8d8;stroke-width:0.1;stroke-linecap:round;stroke-linejoin:round;stroke-opacity:1"
       d="m 99.288289,126.21462 0.699387,-0.30903 0.984014,-0.23584 1.21986,-0.20331 1.56142,-0.13012 0.41475,0.008 0.19518,0.0325 0.19517,0.19518 v 0.29276 l 0.0732,3.72464 -1.08161,-0.37409 -0.98402,-0.48795 -0.91083,-0.46355 -0.58553,-0.39034 -0.53673,-0.35783 -0.45542,-0.40662 -0.455413,-0.47168 z"
       id="path5"
       sodipodi:nodetypes="cccccccccccccccccc"
       inkscape:label="back_mid_traps_left" /><path
       style="fill:#efefef;fill-opacity:1;stroke:#d8d8d8;stroke-width:0.1;stroke-linecap:round;stroke-linejoin:round;stroke-opacity:1"
       d="m 100.30484,125.56403 2.37465,-1.25239 0.3253,-0.73192 0.11385,-1.34997 0.0325,-0.69939 0.34156,-0.24397 0.29277,-0.0163 0.42288,0.0813 0.17891,0.24397 -0.0163,3.07405 -0.14638,0.29276 -0.39036,0.14638 -0.89456,0.0488 -1.69154,0.19518 z"
       id="path2"
       inkscape:label="back_upper_traps_left" /></g><g
     id="g25"
     transform="matrix(-1,0,0,1,118.04045,-108.81136)"
     style="display:inline"><path
       style="fill:#efefef;fill-opacity:1;stroke:#d8d8d8;stroke-width:0.1;stroke-linecap:round;stroke-linejoin:round;stroke-opacity:1"
       d="m 100.54881,171.72344 -0.26024,-2.50477 0.29277,-1.85419 0.24397,-1.25238 0.37409,-1.08974 0.31716,-0.36596 0.39849,-0.13011 0.553,0.0325 0.54488,0.26023 0.39035,0.53673 0.26836,1.35811 0.42289,2.17135 -0.0325,2.15508 -0.52047,2.43972 -0.52048,0.48794 -0.61806,0.0651 -0.48794,-0.16265 -0.45542,-0.22771 -0.39035,-0.553 z"
       id="path14"
       inkscape:label="back_calves_right"
       sodipodi:nodetypes="cccccccccccccccccccc" /><path
       style="fill:#efefef;fill-opacity:1;stroke:#d8d8d8;stroke-width:0.1;stroke-linecap:round;stroke-linejoin:round;stroke-opacity:1"
       d="m 99.29691,150.64148 1.2089,0.89361 0.68889,0.30181 0.63222,0.21934 0.648,0.13522 0.67378,0.023 0.63222,-0.0297 0.0943,2.47862 0.001,2.02532 -0.092,2.4382 -0.18402,1.51812 -0.18401,0.96608 -0.36803,0.13801 -0.80507,-0.16101 -0.50604,-0.20702 -0.59526,-0.25976 -0.53183,-0.4073 -0.966079,-4.43936 -0.184015,-2.73722 -0.126167,-1.75488 z"
       id="path15"
       inkscape:label="back_hamstrings_right"
       sodipodi:nodetypes="ccccccccccccccccccccc" /><path
       style="fill:#efefef;fill-opacity:1;stroke:#d8d8d8;stroke-width:0.1;stroke-linecap:round;stroke-linejoin:round;stroke-opacity:1"
       d="m 96.075997,147.70038 -0.471679,-1.69154 -0.357825,-3.0903 0.01627,-1.39877 0.333427,-0.70753 0.390355,-0.48794 0.431016,-0.30903 0.487941,-0.008 0.276503,0.26023 0.170779,0.54487 0.08946,1.18732 -0.162648,1.32558 -0.406621,1.77287 0.01626,2.13068 0.260236,1.23612 0.03253,0.61806 v 0.48795 l -0.211441,0.2277 -0.268371,-0.0976 -0.309027,-0.69126 z"
       id="path16"
       sodipodi:nodetypes="ccccccccccccccccccccc"
       inkscape:label="back_forearm_extensors_right" /><path
       style="fill:#efefef;fill-opacity:1;stroke:#d8d8d8;stroke-width:0.1;stroke-linecap:round;stroke-linejoin:round;stroke-opacity:1"
       d="m 99.690055,147.13139 0.184014,1.69063 0.782061,1.38012 0.94308,0.50604 0.57505,0.25302 0.87407,0.046 0.69005,-0.29902 0.50604,-0.29903 0.23002,-0.64405 0.046,-1.42611 v -3.01325 l -0.006,-1.08684 -0.10863,-0.35973 -0.26533,-0.30395 -0.28696,-0.28875 -0.28752,-0.24094 -0.24424,-0.26525 -0.35784,-0.32529 -0.47167,-0.23588 -0.40498,-0.0184 -0.51072,0.13594 -0.4489,0.20726 -0.55383,0.31264 -0.36316,0.43973 -0.371295,0.65058 -0.163472,0.70973 -0.06472,1.11308 z"
       id="path17"
       sodipodi:nodetypes="cccccccccccccccccccccccccccc"
       inkscape:label="back_glutes_right" /><path
       style="fill:#efefef;fill-opacity:1;stroke:#d8d8d8;stroke-width:0.1;stroke-linecap:round;stroke-linejoin:round;stroke-opacity:1"
       d="m 99.947012,140.45442 0.09759,-0.553 0.21144,-0.16265 0.24397,-0.10572 0.23584,-0.0569 0.24397,0.16264 -0.0205,0.21144 -0.0244,0.29684 -0.004,0.28869 0.0732,0.28871 0.0488,0.24803 -0.0121,0.30903 -0.15045,0.16269 -0.22772,0.0651 -0.43101,0.12199 -0.20331,-0.13012 -0.04879,-0.24398 -0.0244,-0.31716 -0.0081,-0.34969 z"
       id="path18"
       sodipodi:nodetypes="cccccccccccccccccccc"
       inkscape:label="back_obliques_right" /><path
       style="fill:#efefef;fill-opacity:1;stroke:#d8d8d8;stroke-width:0.1;stroke-linecap:round;stroke-linejoin:round;stroke-opacity:1"
       d="m 101.24268,140.48385 0.092,-0.48304 0.18401,-0.16101 0.34503,-0.16101 0.32203,-0.18402 0.34502,-0.40253 0.27603,-0.50604 0.26452,-0.52904 0.23002,-0.62106 0.28752,-0.64405 0.20702,-0.37953 0.19551,-0.18401 0.18402,-0.0115 0.12651,0.13801 v 0.89707 l 0.0575,3.18576 -0.0575,0.98908 -0.046,0.90857 -0.046,0.43704 -0.16101,0.092 -0.24152,-0.069 -0.17252,-0.21852 -0.50604,-0.64405 -0.74756,-0.50604 -0.71306,-0.32203 -0.32202,-0.21851 z"
       id="path19"
       inkscape:label="back_erectors_right" /><path
       style="fill:#efefef;fill-opacity:1;stroke:#d8d8d8;stroke-width:0.1;stroke-linecap:round;stroke-linejoin:round;stroke-opacity:1"
       d="m 97.41287,130.32853 1.104089,4.26684 0.425536,1.44912 0.782063,1.73664 0.954572,1.47212 0.52905,0.18402 0.29902,-0.069 0.52904,-0.27602 0.64406,-1.2421 0.82806,-1.88615 -0.023,-0.43704 -0.4224,-0.88571 -0.8887,-1.57549 -0.82807,-1.08109 -0.78206,-0.87407 -0.908577,-1.11559 -0.161013,-0.58654 -0.06901,-0.58655 -0.149513,-0.37953 h -0.299024 l -0.414033,0.29902 -0.529043,0.44854 -0.333525,0.46004 z"
       id="path20"
       sodipodi:nodetypes="cccccccccccccccccccccccc"
       inkscape:label="back_lats_right" /><path
       style="fill:#efefef;fill-opacity:1;stroke:#d8d8d8;stroke-width:0.1;stroke-linecap:round;stroke-linejoin:round;stroke-opacity:1"
       d="m 94.498315,138.52705 0.878298,-0.0488 0.406619,0.0488 0.357825,0.11385 0.504206,0.24397 0.357825,-0.60179 0.292767,-1.69154 0.292767,-1.106 0.04879,-0.73192 -0.16265,-1.00842 -0.243969,-0.91082 -0.227709,-0.52047 -0.390353,-0.56927 -0.634328,0.5042 -0.471678,0.6018 -0.553,0.92709 -0.309031,1.13854 -0.146383,1.106 -0.03253,0.92709 -0.03253,0.86204 z"
       id="path21"
       inkscape:label="back_triceps_right" /><path
       style="fill:#efefef;fill-opacity:1;stroke:#d8d8d8;stroke-width:0.1;stroke-linecap:round;stroke-linejoin:round;stroke-opacity:1"
       d="m 95.685643,131.87476 -0.276503,-1.77286 0.195178,-1.33372 0.536739,-0.95962 0.862031,-0.84576 0.683123,-0.47168 0.650589,-0.19518 0.504208,0.0325 0.439148,0.40662 0.357825,0.45541 0.08133,0.43915 -1.382506,0.79697 -0.927092,1.00842 -0.569267,0.86203 -0.520473,0.97589 -0.341561,0.66685 -0.227705,0.13012 z"
       id="path22"
       inkscape:label="back_rear_deltoids_right" /><path
       style="fill:#efefef;fill-opacity:1;stroke:#d8d8d8;stroke-width:0.1;stroke-linecap:round;stroke-linejoin:round;stroke-opacity:1"
       d="m 100.82865,128.08585 0.48303,0.24152 0.73607,0.43703 0.54054,0.27603 0.79356,0.37953 0.71306,0.32202 0.51754,0.24152 0.003,3.17617 -0.0651,1.07348 -0.0163,0.78071 -0.16264,0.65059 -0.13012,0.19517 -0.11385,0.0325 -0.17892,-0.16264 -0.81324,-1.87045 -0.87829,-1.31745 -0.62578,-0.86581 -0.62661,-0.72814 -0.50421,-0.47167 -0.42288,-0.37409 -0.211443,-0.43915 -0.105725,-0.56927 -0.02452,-0.61576 0.06924,-0.50241 0.325298,-0.43102 z"
       id="path23"
       sodipodi:nodetypes="cccccccccccccccccccccccccc"
       inkscape:label="back_lower_traps_right" /><path
       style="fill:#efefef;fill-opacity:1;stroke:#d8d8d8;stroke-width:0.1;stroke-linecap:round;stroke-linejoin:round;stroke-opacity:1"
       d="m 99.288289,126.21462 0.699387,-0.30903 0.984014,-0.23584 1.21986,-0.20331 1.56142,-0.13012 0.41475,0.008 0.19518,0.0325 0.19517,0.19518 v 0.29276 l 0.0732,3.72464 -1.08161,-0.37409 -0.98402,-0.48795 -0.91083,-0.46355 -0.58553,-0.39034 -0.53673,-0.35783 -0.45542,-0.40662 -0.455413,-0.47168 z"
       id="path24"
       sodipodi:nodetypes="cccccccccccccccccc"
       inkscape:label="back_mid_traps_right" /><path
       style="fill:#efefef;fill-opacity:1;stroke:#d8d8d8;stroke-width:0.1;stroke-linecap:round;stroke-linejoin:round;stroke-opacity:1"
       d="m 100.30484,125.56403 2.37465,-1.25239 0.3253,-0.73192 0.11385,-1.34997 0.0325,-0.69939 0.34156,-0.24397 0.29277,-0.0163 0.42288,0.0813 0.17891,0.24397 -0.0163,3.07405 -0.14638,0.29276 -0.39036,0.14638 -0.89456,0.0488 -1.69154,0.19518 z"
       id="path25"
       inkscape:label="back_upper_traps_right" /></g></svg>
