<?xml version="1.0" encoding="UTF-8" standalone="no"?>
<!-- Created with Inkscape (http://www.inkscape.org/) -->

<svg
   width="700"
   height="800"
   viewBox="0 0 185.20834 211.66667"
   version="1.1"
   id="svg1"
   xml:space="preserve"
   inkscape:version="1.4.2 (f4327f4, 2025-05-13)"
   sodipodi:docname="calimali-neck-back.svg"
   inkscape:export-filename="Export SVGs\back_neck.png"
   inkscape:export-xdpi="96"
   inkscape:export-ydpi="96"
   xmlns:inkscape="http://www.inkscape.org/namespaces/inkscape"
   xmlns:sodipodi="http://sodipodi.sourceforge.net/DTD/sodipodi-0.dtd"
   xmlns="http://www.w3.org/2000/svg"
   xmlns:svg="http://www.w3.org/2000/svg"><sodipodi:namedview
     id="namedview1"
     pagecolor="#ffffff"
     bordercolor="#000000"
     borderopacity="0.25"
     inkscape:showpageshadow="2"
     inkscape:pageopacity="0.0"
     inkscape:pagecheckerboard="0"
     inkscape:deskcolor="#d1d1d1"
     inkscape:document-units="px"
     showguides="true"
     inkscape:zoom="8"
     inkscape:cx="342.3125"
     inkscape:cy="768.9375"
     inkscape:window-width="1920"
     inkscape:window-height="1009"
     inkscape:window-x="-8"
     inkscape:window-y="-8"
     inkscape:window-maximized="1"
     inkscape:current-layer="svg1"><inkscape:page
       x="0"
       y="0"
       width="185.20834"
       height="211.66667"
       id="page2"
       margin="0"
       bleed="0" /></sodipodi:namedview><defs
     id="defs1" /><path
     id="path3"
     style="baseline-shift:baseline;display:inline;overflow:visible;opacity:1;vector-effect:none;fill:#3f3f46;fill-opacity:1;stroke:none;stroke-linecap:butt;stroke-linejoin:bevel;stroke-opacity:1;paint-order:normal;enable-background:accumulate;stop-color:#000000;stop-opacity:1"
     inkscape:label="MainLayer"
     d="m 1.7089844,157.65229 c -0.072709,7.9e-4 -0.1311541,0.0601 -0.1308594,0.13282 v 52.10976 c -2.82e-4,0.0727 0.058157,0.13202 0.1308594,0.13281 l 181.4648456,-0.0937 c 0.0719,-7.8e-4 0.13008,-0.0589 0.13086,-0.13086 l 0.2832,-52.18398 c 3.9e-4,-0.0727 -0.0581,-0.13202 -0.40446,-0.35547 -7.66118,-5.14611 -15.75889,-6.31372 -23.39262,-10.58367 -2.93984,-1.64442 -7.96454,-4.42411 -11.166,-6.17711 -3.20145,-1.75299 -7.53579,-4.22094 -9.63184,-5.48431 -4.08917,-2.46471 -10.63121,-6.80929 -11.07589,-7.35552 -0.31887,-0.39168 -1.71302,-4.49881 -2.28114,-6.72016 -0.65101,-2.54545 -1.99743,-9.24702 -2.41089,-11.99979 l -0.38604,-2.5702 1.19082,-3.54434 c 0.65495,-1.94939 1.79584,-5.68747 2.53532,-8.306845 0.73948,-2.619376 1.54666,-5.476876 1.79373,-6.350001 l 0.44923,-1.5875 1.83856,-0.151077 c 2.31514,-0.190237 3.62737,-0.858752 5.31915,-2.709836 3.98617,-4.361495 6.79286,-14.54055 5.9376,-21.533894 -0.52751,-4.31335 -1.9459,-6.372191 -4.1791,-6.066097 -0.62413,0.08555 -1.74619,0.465365 -2.49347,0.844042 l -1.3587,0.688503 0.15117,-0.617071 c 0.0831,-0.33939 0.33648,-1.92676 0.56297,-3.527489 1.3008,-9.193101 1.25018,-16.884852 -0.15391,-23.385575 C 130.97918,14.137906 119.8763,4.199782 101.79356,0.910909 99.032315,0.408698 97.670375,0.333248 91.342519,0.331748 83.5748,0.329938 82.50936,0.439727 77.00532,1.80913 71.54558,3.16751 66.90753,5.169705 62.7731,7.953014 c -2.80859,1.890751 -7.04329,6.184915 -8.85749,8.981873 -5.97109,9.205654 -7.73631,20.934816 -5.42505,36.047251 0.28933,1.891771 0.58925,3.639436 0.66645,3.8837 0.12,0.379554 -0.10758,0.345725 -1.56549,-0.23271 -1.9885,-0.788952 -3.14524,-0.700124 -4.37672,0.336099 -1.38386,1.164444 -1.74943,2.816233 -1.72333,7.786871 0.02114,4.027116 0.08793,4.608532 0.86143,7.498307 1.85794,6.941243 5.20296,12.496948 8.30143,13.787734 0.56369,0.234828 1.76005,0.409793 2.80205,0.409793 h 1.81836 l 0.95877,3.50573 c 0.52732,1.928151 1.91828,6.448338 3.09101,10.044858 l 2.13223,6.53913 -0.54996,3.77962 c -1.17134,8.05009 -3.40409,17.13499 -4.29552,17.47816 -0.17933,0.069 -2.05246,1.31597 -4.16251,2.77097 -4.68482,3.23046 -10.7548,6.94413 -15.875,9.71247 -4.91975,2.65997 -10.927157,6.00203 -15.433125,8.15922 -6.54002,3.13096 -7.516122,3.90617 -11.4409209,5.69039 -1.750774,0.7959 -5.4746084,2.38482 -7.7925456,3.41668 -0.2487355,0.10904 -0.065078,0.16243 -0.065372,0.23595 v 51.9789 l 181.1992231,-0.0937 0.2832,-52.05312 c 7.9e-4,-0.0728 0.0601,-0.13115 0.13281,-0.13086"
     sodipodi:nodetypes="ccccccccsssssscssscssssscsssscsssccsssssscsscsssssscccccc" /><g
     id="g18"
     inkscape:label="back_neck_left"
     style="display:inline"><g
       id="g12"
       inkscape:label="back_neck_extensors_left"><path
         style="display:inline;fill:#f0f0f0;fill-opacity:1;stroke:#d9d9d9;stroke-width:0.529167;stroke-linecap:round;stroke-linejoin:round;stroke-dasharray:none;stroke-opacity:1"
         d="m 83.103324,78.362744 8.460788,-1.012652 0.04913,130.666438 -8.687246,0.0296 -4.544226,-20.82545 -2.972602,-10.46693 C 72.71443,169.56272 70.125737,162.25482 67.345535,154.7903 l 5.23494,-11.648 2.327409,-5.50997 2.364256,-7.48511 2.157339,-10.17899 1.208575,-7.13053 1.351711,-10.99473 0.830803,-15.621652 z"
         id="path7"
         inkscape:label="1"
         sodipodi:nodetypes="ccccccccccccccc" /><path
         style="fill:#f0f0f0;fill-opacity:1;stroke:#d9d9d9;stroke-width:0.529167;stroke-linecap:round;stroke-linejoin:round;stroke-dasharray:none;stroke-opacity:1"
         d="m 59.304975,125.73673 2.86344,-13.04455 1.399902,-13.808133 1.018111,-12.153702 0.254527,-2.542079 1.142176,1.464858 1.773975,5.370117 3.907908,12.018719 2.328025,7.34403 1.924397,5.79503 -8.770291,4.71968 -6.448662,3.91882 z"
         id="path9"
         sodipodi:nodetypes="ccccccccccccc"
         inkscape:label="2" /></g><g
       id="g17"
       inkscape:label="back_neck_lateral_extensors_left"><path
         style="fill:#f0f0f0;fill-opacity:1;stroke:#d9d9d9;stroke-width:0.529167;stroke-linecap:round;stroke-linejoin:round;stroke-dasharray:none;stroke-opacity:1"
         d="m 21.771719,149.95094 8.983117,-4.65769 14.765234,-8.33084 2.77128,-1.73079 12.140911,-8.23637 4.518702,-2.75293 7.223106,-4.18879 6.161381,-2.90391 -0.47478,2.89263 -1.036947,5.45781 -1.944105,7.40375 -2.420143,6.56838 -3.140348,7.02112 -3.512113,7.8134 0.185163,1.74838 2.177602,5.69732 2.18532,5.91457 -4.422599,-3.97122 -3.808532,-2.491 -4.299982,-1.86797 -5.810326,-1.90231 -5.273273,-1.76671 -6.680761,-2.5157 -5.607288,-2.09887 -5.608428,-1.15045 -3.581539,-0.13552 z"
         id="path12"
         sodipodi:nodetypes="ccccccccccccccccccccccccccc"
         inkscape:label="1" /></g><g
       id="g13"
       inkscape:label="back_neck_rotators_left"><path
         style="fill:#f0f0f0;fill-opacity:1;stroke:#d9d9d9;stroke-width:0.529167;stroke-linecap:round;stroke-linejoin:round;stroke-dasharray:none;stroke-opacity:1"
         d="m 66.559016,83.866907 2.985089,8.303444 5.223435,15.622169 2.608908,7.89036 1.288078,-0.75267 0.856772,-5.48326 1.129538,-8.98104 0.607161,-8.708641 0.543134,-7.837648 0.04499,-5.214622 -0.842655,-0.119543 -5.509045,1.392582 -5.435651,2.29807 z"
         id="path10"
         sodipodi:nodetypes="cccccccccccccc"
         inkscape:label="1" /><path
         style="fill:#f0f0f0;fill-opacity:1;stroke:#d9d9d9;stroke-width:0.529167;stroke-linecap:round;stroke-linejoin:round;stroke-dasharray:none;stroke-opacity:1"
         d="m 61.642576,101.01284 -2.997319,-9.077255 -1.997078,-6.895825 -2.114746,-8.323999 2.699676,2.339721 3.509577,2.879652 2.429705,1.574811 -0.489479,5.98108 -0.468584,5.169856 -0.391772,4.91213 z"
         id="path11"
         sodipodi:nodetypes="ccccccccccc"
         inkscape:label="2" /></g></g><g
     id="g23"
     inkscape:label="back_neck_right"
     transform="matrix(-1,0,0,1,184.02885,0)"
     style="display:inline"><g
       id="g19"
       inkscape:label="back_neck_extensors_right"><path
         style="display:inline;fill:#f0f0f0;fill-opacity:1;stroke:#d9d9d9;stroke-width:0.529167;stroke-linecap:round;stroke-linejoin:round;stroke-dasharray:none;stroke-opacity:1"
         d="m 83.103324,78.362744 8.460788,-1.012652 0.04913,130.666438 -8.687246,0.0296 -4.544226,-20.82545 -2.972602,-10.46693 c -2.694738,-7.19103 -5.124351,-14.21259 -7.904553,-21.67711 l 3.108653,-7.36572 2.221735,-4.37772 4.032186,-12.1961 2.56229,-11.16887 1.208575,-7.13053 1.351711,-10.99473 0.830803,-15.621652 z"
         id="path18"
         inkscape:label="1"
         sodipodi:nodetypes="ccccccccccccccc" /><path
         style="fill:#f0f0f0;fill-opacity:1;stroke:#d9d9d9;stroke-width:0.529167;stroke-linecap:round;stroke-linejoin:round;stroke-dasharray:none;stroke-opacity:1"
         d="m 58.495073,126.0067 3.088412,-13.35951 1.894843,-14.61804 1.1081,-11.298805 0.254527,-2.542079 1.142176,1.28488 1.908959,5.235133 3.772924,12.333681 2.328025,7.34403 1.924397,5.79503 -8.770291,4.71968 -6.178695,3.64885 z"
         id="path19"
         sodipodi:nodetypes="ccccccccccccc"
         inkscape:label="2" /></g><g
       id="g20"
       inkscape:label="back_neck_lateral_extensors_right"><path
         style="fill:#f0f0f0;fill-opacity:1;stroke:#d9d9d9;stroke-width:0.529167;stroke-linecap:round;stroke-linejoin:round;stroke-dasharray:none;stroke-opacity:1"
         d="m 22.322646,149.37825 11.051155,-5.99396 11.901796,-6.67641 5.761982,-3.70338 8.51389,-5.59564 5.504997,-3.45288 7.000394,-4.15698 6.161381,-2.96754 -0.347516,2.98808 -1.068763,5.52144 -1.944105,7.46738 -2.165615,6.66383 -3.108532,7.02112 -3.321217,7.8134 0.02608,1.55748 2.27305,6.07912 2.280768,5.7873 -4.358967,-4.06667 -3.967612,-2.61826 -4.268166,-1.80434 -5.651246,-1.96594 -5.241457,-1.79853 -6.935289,-2.57933 -5.384576,-2.13068 -5.767508,-1.30953 -3.486091,-0.45368 z"
         id="path20"
         sodipodi:nodetypes="ccccccccccccccccccccccccccc"
         inkscape:label="1" /></g><g
       id="g22"
       inkscape:label="back_neck_rotators_right"><path
         style="fill:#f0f0f0;fill-opacity:1;stroke:#d9d9d9;stroke-width:0.529167;stroke-linecap:round;stroke-linejoin:round;stroke-dasharray:none;stroke-opacity:1"
         d="m 66.559016,83.866907 3.082682,8.182951 5.125842,15.742662 2.608908,7.89036 1.288078,-0.75267 0.856772,-5.48326 1.129538,-8.98104 0.832134,-8.663646 0.318161,-7.882643 0.08998,-5.349606 -1.112623,0.195419 -5.284072,1.212604 -5.435651,2.29807 z"
         id="path21"
         sodipodi:nodetypes="cccccccccccccc"
         inkscape:label="1" /><path
         style="fill:#f0f0f0;fill-opacity:1;stroke:#d9d9d9;stroke-width:0.529167;stroke-linecap:round;stroke-linejoin:round;stroke-dasharray:none;stroke-opacity:1"
         d="m 61.552587,101.3278 -3.087308,-9.527199 -1.8171,-6.760841 -1.979762,-8.683956 2.564692,2.699678 3.869534,2.924647 2.249726,1.529816 -0.669457,5.98108 -0.468584,5.169856 -0.391772,4.91213 z"
         id="path22"
         sodipodi:nodetypes="ccccccccccc"
         inkscape:label="2" /></g></g></svg>
