<?xml version="1.0" encoding="UTF-8" standalone="no"?>
<!-- Created with Inkscape (http://www.inkscape.org/) -->

<svg
   width="700"
   height="800"
   viewBox="0 0 185.20834 211.66668"
   version="1.1"
   id="svg1"
   xml:space="preserve"
   inkscape:version="1.4.2 (f4327f4, 2025-05-13)"
   sodipodi:docname="calimali-neck-front.svg"
   inkscape:export-filename="Export SVGs\calimali-neck-front.svg"
   inkscape:export-xdpi="96"
   inkscape:export-ydpi="96"
   xmlns:inkscape="http://www.inkscape.org/namespaces/inkscape"
   xmlns:sodipodi="http://sodipodi.sourceforge.net/DTD/sodipodi-0.dtd"
   xmlns="http://www.w3.org/2000/svg"
   xmlns:svg="http://www.w3.org/2000/svg"><sodipodi:namedview
     id="namedview1"
     pagecolor="#ffffff"
     bordercolor="#000000"
     borderopacity="0.25"
     inkscape:showpageshadow="2"
     inkscape:pageopacity="0.0"
     inkscape:pagecheckerboard="0"
     inkscape:deskcolor="#d1d1d1"
     inkscape:document-units="mm"
     showguides="true"
     inkscape:zoom="1"
     inkscape:cx="549"
     inkscape:cy="478.5"
     inkscape:window-width="1920"
     inkscape:window-height="1009"
     inkscape:window-x="-8"
     inkscape:window-y="-8"
     inkscape:window-maximized="1"
     inkscape:current-layer="svg1"><inkscape:page
       x="0"
       y="0"
       width="185.20834"
       height="211.66669"
       id="page2"
       margin="0"
       bleed="0" /></sodipodi:namedview><defs
     id="defs1" /><path
     style="baseline-shift:baseline;display:inline;overflow:visible;opacity:1;vector-effect:none;fill:none;fill-opacity:1;stroke:#000000;stroke-linecap:round;stroke-linejoin:round;stroke-opacity:1;paint-order:stroke fill markers;enable-background:accumulate;stop-color:#000000;stop-opacity:1"
     d="m 183.98275,157.57538 -0.23564,53.37319 -182.181647,0.006 -0.02539,-53.12219 c 0,-0.0641 3.017e-4,-0.11156 3.017e-4,-0.50315 0.5117086,-0.28428 3.7126632,-2.14337 6.5278642,-3.12264 1.523152,-0.52983 4.4296011,-1.38142 6.4587751,-1.89243 3.796576,-0.95609 6.89434,-2.33392 14.05519,-6.2515 10.2692,-5.6181 24.958754,-15.2459 27.832763,-18.24211 1.063147,-1.10835 1.282956,-2.10094 1.689229,-7.62808 0.644462,-8.76757 -0.06813,-21.939108 -1.647926,-30.46017 l -0.570258,-3.075852 -1.656928,-0.133 c -1.040662,-0.0835 -2.07948,-0.366417 -2.793029,-0.760587 -3.150117,-1.740148 -6.452926,-8.229259 -8.211027,-16.132449 -0.483333,-2.17272 -0.612881,-3.55822 -0.615981,-6.58782 -0.0037,-3.60614 0.03836,-3.92666 0.700424,-5.33899 0.811671,-1.73148 1.770285,-2.37802 3.525803,-2.37802 0.633054,0 1.618663,0.25008 2.245099,0.56967 0.614158,0.31332 1.152638,0.5316 1.196621,0.48507 0.04398,-0.0465 -0.02515,-0.73945 -0.153622,-1.53981 -1.364782,-8.5022 -1.395875,-18.339452 -0.07861,-24.870835 0.527896,-2.617465 2.23639,-7.730157 3.262297,-9.762467 C 58.511324,9.8976203 68.612047,3.1366889 82.689497,0.54003343 c 2.54936,-0.47024267 4.09375,-0.56350567 9.525,-0.57519867 7.36776,-0.01586 10.469433,0.347471 15.620543,1.82981404 15.24145,4.3860616 24.61683,14.6134222 27.27824,29.7571622 0.99033,5.635108 0.93219,15.409071 -0.1342,22.561091 -0.18986,1.27331 -0.30028,2.31511 -0.24539,2.31511 0.0549,0 0.56657,-0.23813 1.13706,-0.52917 0.6778,-0.34579 1.55939,-0.52917 2.54396,-0.52917 1.40496,0 1.57244,0.0691 2.47978,1.0229 1.39842,1.47004 1.72785,2.88784 1.69884,7.31148 -0.0453,6.91001 -2.14524,13.99473 -5.70164,19.236087 -1.67707,2.471625 -3.762,3.650329 -6.4568,3.650329 h -1.11842 l -0.55132,2.976542 c -1.6826,9.084429 -2.34869,21.85178 -1.61992,31.05006 0.4485,5.66082 0.57891,6.13991 2.0388,7.49043 4.7809,4.42271 20.23917,14.1926 32.63139,20.62359 4.20253,2.18093 5.09855,2.53519 9.39271,3.71369 2.61084,0.71652 5.07178,1.0316 6.16319,1.4254 2.39269,0.86333 5.61632,2.63556 6.32158,3.04274 0.21829,0.12603 0.28245,0.12766 0.28245,0.32083 0,0.0668 0.01,0.18746 0.007,0.34163 z"
     id="path1"
     sodipodi:nodetypes="cccccssssssccssssssccsssssssssssssscsssssscsc"
     inkscape:label="MainLayer" /><g
     id="g8"
     inkscape:label="front_neck_left"
     transform="translate(0,-20.10834)"
     style="display:inline"><g
       id="front_neck_flexors_left"
       inkscape:label="front_neck_flexors_left"
       transform="translate(-15.157193,-34.023832)"><path
         style="fill:#f0f0f0;stroke:#d9d9d9;stroke-width:0.529167;stroke-linecap:round;stroke-linejoin:round"
         d="m 98.184635,166.76026 2.552625,0.53739 1.74653,0.35827 1.88088,0.17913 2.91089,0.2687 0.0447,56.15772 -2.23915,-0.22394 -2.32871,-0.62696 -2.06001,-1.29871 -1.433057,-1.34347 -1.074788,-1.16436 3.3e-5,-18.98792 5e-6,-3.04523 z"
         id="path2"
         sodipodi:nodetypes="cccccccccccccc"
         inkscape:label="path2" /></g><g
       id="front_neck_rotators_left"
       inkscape:label="front_neck_rotators_left"
       transform="translate(-15.157193,-34.023832)"><path
         style="fill:#f0f0f0;stroke:#d9d9d9;stroke-width:0.529167;stroke-linecap:round;stroke-linejoin:round"
         d="m 92.586777,216.42446 1.656966,0.62696 1.298702,0.98523 1.298705,1.07479 0.04478,-16.4801 -3.743944,-12.2899 -4.361756,-14.53504 -1.687222,-6.97911 -1.044533,-4.66444 -0.626961,-4.29915 -11.061369,-10.47919 3.506306,16.1636 2.718515,11.19873 2.319286,8.86971 4.263794,14.14869 z"
         id="path3"
         sodipodi:nodetypes="cccccccccccccccc" /><path
         style="fill:#f0f0f0;stroke:#d9d9d9;stroke-width:0.529167;stroke-linecap:round;stroke-linejoin:round"
         d="m 86.541088,160.75936 10.120928,5.55307 0.440146,33.22889 -2.461917,-9.13384 -3.046352,-10.19146 -2.32105,-8.21616 -1.714216,-6.31136 z"
         id="path4"
         sodipodi:nodetypes="cccccccc" /></g><g
       id="front_neck_lateral_flexors_left"
       inkscape:label="front_neck_lateral_flexors_left"
       transform="translate(-15.157193,-34.023832)"><path
         style="fill:#f0f0f0;stroke:#d9d9d9;stroke-width:0.529167;stroke-linecap:round;stroke-linejoin:round"
         d="m 88.65686,214.67448 0.472744,-1.92621 v -1.96331 l -2.279973,-6.96658 -2.5333,-7.72657 -7.346577,7.40991 -7.536572,7.9799 2.596634,0.56999 z"
         id="path5"
         sodipodi:nodetypes="ccccccccc" /><path
         style="fill:#f0f0f0;stroke:#d9d9d9;stroke-width:0.529167;stroke-linecap:round;stroke-linejoin:round"
         d="m 62.339936,209.45498 5.066604,1.77331 10.988187,-11.36029 3.250523,-3.40983 2.153553,-2.37445 -9.388583,-37.08028 0.596225,16.60532 -0.379995,8.73989 -1.12912,6.57571 -2.480833,6.66079 -4.623277,8.47119 z"
         id="path6"
         sodipodi:nodetypes="cccccccccccc" /><path
         style="fill:#f0f0f0;stroke:#d9d9d9;stroke-width:0.529167;stroke-linecap:round;stroke-linejoin:round"
         d="m 43.023511,202.04507 20.329747,-11.96985 9.563214,-6.96658 -0.03992,1.19872 -0.693832,3.56659 -1.631282,4.81513 -2.891563,6.18936 -3.293293,5.4466 -1.753089,2.60104 -2.035996,2.2276 -10.631901,-4.17317 z"
         id="path7"
         sodipodi:nodetypes="cccccccccccc" /></g></g><g
     id="g14"
     inkscape:label="front_neck_right"
     transform="matrix(-1,0,0,1,185.06391,-20.10834)"
     style="display:inline"><g
       id="front_neck_flexors_right"
       inkscape:label="front_neck_flexors_right"
       transform="translate(-15.157193,-34.023832)"><path
         style="fill:#f0f0f0;stroke:#d9d9d9;stroke-width:0.529167;stroke-linecap:round;stroke-linejoin:round"
         d="m 98.184635,166.76026 2.552625,0.53739 1.74653,0.35827 1.88088,0.17913 2.82132,0.22391 0.0447,56.15772 -2.14958,-0.17915 -2.32871,-0.62696 -2.06001,-1.29871 -1.433057,-1.34347 -1.074788,-1.16436 3.3e-5,-18.98792 5e-6,-3.04523 z"
         id="path8"
         sodipodi:nodetypes="cccccccccccccc"
         inkscape:label="path2" /></g><g
       id="front_neck_rotators_right"
       inkscape:label="front_neck_rotators_right"
       transform="translate(-15.157193,-34.023832)"><path
         style="fill:#f0f0f0;stroke:#d9d9d9;stroke-width:0.529167;stroke-linecap:round;stroke-linejoin:round"
         d="m 92.586777,216.42446 1.612183,0.73892 1.141962,0.76131 1.365879,1.16436 -0.06718,-16.4801 -3.766335,-12.17794 -4.249799,-14.55744 -1.776788,-7.11345 -1.022141,-4.79879 -0.783701,-3.94089 -11.016587,-11.15093 3.707829,16.52186 2.718515,11.35547 2.373344,8.90138 4.030605,14.00506 z"
         id="path9"
         sodipodi:nodetypes="cccccccccccccccc" /><path
         style="fill:#f0f0f0;stroke:#d9d9d9;stroke-width:0.529167;stroke-linecap:round;stroke-linejoin:round"
         d="m 86.182826,160.55783 10.300059,5.82177 0.408479,32.62723 -2.43025,-8.53218 -3.046352,-10.19146 -2.32105,-8.21616 -1.714216,-6.31136 z"
         id="path10"
         sodipodi:nodetypes="cccccccc" /></g><g
       id="front_neck_lateral_flexors_right"
       inkscape:label="front_neck_lateral_flexors_right"
       transform="translate(-15.157193,-34.023832)"><path
         style="fill:#f0f0f0;stroke:#d9d9d9;stroke-width:0.529167;stroke-linecap:round;stroke-linejoin:round"
         d="m 88.340197,214.54781 0.377745,-1.79954 0.379995,-1.77331 -2.248306,-7.15658 -2.691631,-7.82157 -7.378244,7.56824 -7.916567,7.9799 3.926618,0.82332 z"
         id="path11"
         sodipodi:nodetypes="ccccccccc" /><path
         style="fill:#f0f0f0;stroke:#d9d9d9;stroke-width:0.529167;stroke-linecap:round;stroke-linejoin:round"
         d="m 61.864942,209.83498 5.161603,1.20331 10.006532,-9.74531 4.263844,-4.45481 2.375217,-2.34279 -9.451916,-37.52361 0.596225,16.92199 -0.379995,8.48656 -1.192452,6.7657 -2.480833,6.72413 -4.623277,8.37619 z"
         id="path12"
         sodipodi:nodetypes="cccccccccccc" /><path
         style="fill:#f0f0f0;stroke:#d9d9d9;stroke-width:0.529167;stroke-linecap:round;stroke-linejoin:round"
         d="m 42.770181,202.1084 20.393079,-12.12818 9.658213,-6.96658 -0.641579,3.35203 -1.13716,4.32658 -1.156288,3.48514 -2.606566,5.11271 -3.103296,5.19327 -1.753089,2.56938 -1.877664,2.19593 -10.631901,-3.95151 z"
         id="path13"
         sodipodi:nodetypes="cccccccccccc" /></g></g></svg>
