<?xml version="1.0" encoding="UTF-8" standalone="no"?>
<!-- Created with Inkscape (http://www.inkscape.org/) -->

<svg
   width="100"
   height="300"
   viewBox="0 0 26.458333 79.375"
   version="1.1"
   id="svg1"
   xml:space="preserve"
   inkscape:version="1.4.2 (f4327f4, 2025-05-13)"
   sodipodi:docname="calimali-body-front.svg"
   xmlns:inkscape="http://www.inkscape.org/namespaces/inkscape"
   xmlns:sodipodi="http://sodipodi.sourceforge.net/DTD/sodipodi-0.dtd"
   xmlns="http://www.w3.org/2000/svg"
   xmlns:svg="http://www.w3.org/2000/svg"><sodipodi:namedview
     id="namedview1"
     pagecolor="#ffffff"
     bordercolor="#000000"
     borderopacity="0.25"
     inkscape:showpageshadow="2"
     inkscape:pageopacity="0.0"
     inkscape:pagecheckerboard="0"
     inkscape:deskcolor="#d1d1d1"
     inkscape:document-units="mm"
     inkscape:zoom="5.6568542"
     inkscape:cx="31.112699"
     inkscape:cy="159.18742"
     inkscape:window-width="1920"
     inkscape:window-height="1009"
     inkscape:window-x="-8"
     inkscape:window-y="-8"
     inkscape:window-maximized="1"
     inkscape:current-layer="svg1"
     showguides="true"><inkscape:page
       x="0"
       y="0"
       width="26.458332"
       height="79.375"
       id="page2"
       margin="0"
       bleed="0" /></sodipodi:namedview><defs
     id="defs1" /><path
     id="path1"
     style="fill:#000000"
     inkscape:label="MainLayer"
     d="m 13.12168,5.0151978 c -0.74276,-3.3e-4 -0.849147,0.021664 -1.391647,0.2868042 -1.1042,0.53965 -1.8324171,1.5346625 -1.8562171,2.5357625 -0.0062,0.26345 0.020645,0.6789778 0.059945,0.9234578 0.06558,0.4079 0.057642,0.4444173 -0.093018,0.4444173 -0.3259,0 -0.4870405,0.3102611 -0.4790405,0.9198404 0.00976,0.71562 0.2767254,1.354897 0.7208866,1.728577 l 0.324011,0.272851 0.112138,1.304314 0.112654,1.304829 -1.3363522,0.873332 c -1.682889,1.0992 -1.6563666,1.086362 -2.5466146,1.207162 -1.552144,0.2106 -2.2399823,0.562592 -2.8892293,1.478462 -0.886003,1.24985 -1.1227277,2.099141 -0.9875367,3.547071 0.047649,0.51033 0.1491593,1.176363 0.2253093,1.480013 0.142805,0.56941 0.1346231,0.716989 -0.094568,1.758549 -0.192507,0.87483 -0.2584094,3.016962 -0.1240234,4.032312 0.120628,0.91139 0.1367969,0.815086 -0.3550171,2.148706 -0.26868,0.72852 -0.2805019,0.812013 -0.2744019,1.904793 0.00527,0.93714 0.054986,1.379167 0.2764689,2.455147 0.661006,3.21119 0.7954252,5.415694 0.4470012,7.323584 -0.256783,1.40609 -0.2126965,1.609656 0.5053955,2.343526 0.279598,0.28574 0.5487063,0.594364 0.5978963,0.686264 0.076832,0.14355 0.1507556,0.160939 0.5250326,0.121439 0.239619,-0.02528 0.6436654,-0.116038 0.8981364,-0.201538 0.438658,-0.14739 0.4717243,-0.179031 0.6351033,-0.606681 0.15054,-0.39404 0.4118398,-0.691968 0.5157308,-0.588078 0.01898,0.01898 0.094245,0.489167 0.1669149,1.044897 0.263475,2.01503 0.8741912,4.414427 1.4949992,5.873027 0.30354,0.71315 0.3498641,0.915742 0.4273641,1.863452 0.12513,1.53091 0.1193662,1.652079 -0.1255738,2.587439 -0.446484,1.70507 -0.5230325,2.278021 -0.5250325,3.936711 -0.00237,1.85809 0.063245,2.245251 0.8418091,4.945951 0.66188,2.29596 0.8219902,2.925428 1.0970909,4.310848 0.315,1.5863 0.297872,1.776491 -0.2366783,2.596741 -0.45799,0.70276 -1.0737971,1.264915 -1.5368571,1.403015 -0.232834,0.06944 -0.4836987,0.172743 -0.5575887,0.229443 -0.360385,0.27656 -0.3523629,0.728738 0.014986,0.835608 0.22222,0.0646 3.4813791,0.02557 4.4369391,-0.05323 0.96867,-0.07991 0.973584,-0.08266 0.973584,-0.47749 0,-0.18979 -0.08127,-0.612998 -0.180868,-0.941028 -0.1562,-0.51441 -0.168199,-0.653407 -0.0863,-1.008207 0.07942,-0.34419 0.06807,-0.52538 -0.06976,-1.11001 -0.33251,-1.41024 -0.375006,-4.739693 -0.08527,-6.667293 0.0891,-0.59282 0.427478,-2.17661 0.588078,-2.75177 0.0301,-0.107655 0.04844,-0.163656 0.05994,-0.172082 l 5.16e-4,-5.17e-4 5.17e-4,-5.17e-4 h 5.17e-4 5.17e-4 l 5.17e-4,-5.17e-4 h 5.16e-4 v 5.17e-4 h 5.17e-4 5.17e-4 l 5.17e-4,5.17e-4 h 5.16e-4 c 0.0075,0.0076 0.01163,0.04636 0.01447,0.113688 0.0048,0.10749 0.119305,0.641017 0.254765,1.185457 0.13546,0.54443 0.288097,1.256879 0.338997,1.582849 0.35757,2.29032 0.336471,5.365295 -0.04651,6.798035 -0.112,0.41907 -0.124861,0.628729 -0.06046,0.983919 0.06802,0.37528 0.04891,0.584708 -0.112138,1.241268 -0.26379,1.07541 -0.222893,1.138398 0.794267,1.223698 1.06982,0.08975 4.531917,0.04293 4.660697,-0.06305 0.05823,-0.04791 0.105937,-0.197083 0.105937,-0.331763 0,-0.27688 -0.34607,-0.542336 -0.82579,-0.633036 -0.33472,-0.06325 -1.107073,-0.79268 -1.585433,-1.4981 -0.28081,-0.41405 -0.338369,-0.575075 -0.365869,-1.016475 -0.04507,-0.72386 0.421652,-2.982454 1.119312,-5.416724 0.79567,-2.77621 0.931592,-3.531919 0.927592,-5.182629 -0.0033,-1.50894 -0.176553,-2.685361 -0.633553,-4.308781 -0.22716,-0.8069 -0.247732,-0.967247 -0.167432,-1.286227 0.0505,-0.20044 0.09147,-0.729732 0.09147,-1.176672 0,-0.76624 0.0217,-0.864802 0.372587,-1.719792 0.70631,-1.72106 1.067951,-3.168611 1.430921,-5.723681 l 0.191203,-1.345138 0.228926,0.202572 c 0.12584,0.11141 0.277214,0.354465 0.336414,0.540535 0.09536,0.29958 0.160941,0.359112 0.573091,0.520382 0.25598,0.10017 0.623675,0.207862 0.817005,0.239262 0.33542,0.0545 0.370856,0.03864 0.775146,-0.350883 0.23303,-0.22451 0.562752,-0.592451 0.732772,-0.817521 0.43059,-0.57001 0.456968,-0.931798 0.166398,-2.300118 -0.34011,-1.60165 -0.266225,-3.258747 0.273885,-6.138127 0.34995,-1.86586 0.451069,-2.626543 0.449069,-3.386873 -0.0018,-0.87094 -0.07717,-1.232981 -0.481108,-2.312521 L 23.418723,29.9377 23.519492,29.029228 c 0.17472,-1.5713 0.105809,-2.775576 -0.249081,-4.354256 -0.17824,-0.79295 -0.180172,-0.848847 -0.04754,-1.270207 0.19801,-0.62904 0.338735,-2.033887 0.272335,-2.718697 -0.0652,-0.67244 -0.233116,-1.140311 -0.684196,-1.909961 -0.45204,-0.77128 -0.909095,-1.233798 -1.508435,-1.525488 -0.49879,-0.24275 -1.702411,-0.50953 -2.298051,-0.50953 -0.1894,0 -0.444451,-0.118078 -0.814421,-0.377238 -0.29626,-0.20753 -1.00346,-0.693321 -1.57148,-1.079521 -0.56803,-0.386201 -1.048869,-0.740432 -1.068669,-0.787032 -0.03771,-0.08884 0.06591,-1.522127 0.154513,-2.135787 0.04029,-0.27916 0.107651,-0.390952 0.304891,-0.507462 0.36828,-0.21755 0.682505,-0.917052 0.733805,-1.633492 0.04708,-0.6579102 -0.08214,-0.9734509 -0.434599,-1.0619509 -0.18932,-0.04752 -0.194422,-0.068395 -0.117822,-0.4878255 0.12094,-0.66188 0.04535,-1.3922742 -0.193787,-1.8743042 C 15.715456,6.2290744 15.022622,5.552627 14.421342,5.258077 13.982452,5.043127 13.83483,5.0155178 13.12168,5.0151978 Z m -0.06925,0.2816365 c 1.075766,0.036105 2.191734,0.7175101 2.662887,1.6805176 0.22161,0.45287 0.2251,0.4861602 0.1757,1.6417602 -0.02671,0.6234082 -0.01959,1.1379456 0.01499,1.1771892 1.42e-4,1.28e-4 7.18e-4,7.02e-4 10e-4,0.00103 l 5.17e-4,5.168e-4 h 5.17e-4 5.17e-4 l 5.16e-4,5.167e-4 h 5.17e-4 5.17e-4 c 0.03833,0 0.12462,-0.082371 0.19172,-0.1834513 0.28934,-0.43578 0.497498,0.2545223 0.289388,0.9596315 -0.07332,0.2484 -0.212326,0.579681 -0.309026,0.736389 -0.16054,0.26018 -0.184886,0.272457 -0.283186,0.137977 -0.09838,-0.1345 -0.115922,-0.126182 -0.201022,0.09612 -0.05122,0.13384 -0.11586,0.414898 -0.14366,0.624768 -0.02781,0.20987 -0.144686,0.58436 -0.259416,0.83199 -0.221,0.47701 -1.113386,1.47494 -1.497066,1.6738 v -5.17e-4 c -0.58185,0.30157 -1.306273,0.05607 -2.043803,-0.693498 -0.64995,-0.66055 -0.871354,-1.055228 -0.992704,-1.769918 -0.05535,-0.325959 -0.136985,-0.662975 -0.181385,-0.748275 -0.07532,-0.14462 -0.08802,-0.145225 -0.185518,-0.01189 -0.09581,0.13108 -0.115858,0.125792 -0.238228,-0.06098 -0.3600911,-0.5496 -0.5134154,-1.4968562 -0.2914554,-1.8004062 0.12409,-0.16968 0.3090254,-0.1136857 0.3090254,0.093534 0,0.071 0.04774,0.1124009 0.105936,0.092501 0.0745,-0.0255 0.09336,-0.17145 0.06356,-0.49351 -0.0232,-0.25171 -0.04079,-0.8009805 -0.03979,-1.2200805 0.0029,-0.90125 0.144901,-1.2405251 0.785481,-1.8789551 0.47513,-0.47353 1.043241,-0.7784629 1.606621,-0.8619629 0.150041,-0.022238 0.303138,-0.029963 0.456819,-0.024805 z m -2.232938,8.2692627 0.607198,0.620634 c 1.22155,1.249341 1.969615,1.268496 3.166215,0.08216 0.36654,-0.36339 0.672578,-0.660424 0.680578,-0.660424 0.0077,0 -0.0326,0.4858 -0.0894,1.07952 -0.1288,1.345941 -0.129775,1.375627 -0.04548,1.375627 2.97e-4,0 0.0012,-1.5e-5 0.0016,0 h 5.17e-4 c 0.03904,-0.01123 0.117944,-0.254758 0.176733,-0.550354 0.06016,-0.30268 0.144919,-0.550354 0.188619,-0.550354 0.1016,0 0.745046,0.41302 1.759066,1.12913 0.402076,0.283938 0.682455,0.522009 0.667143,0.560173 -1.59e-4,2.77e-4 -3.21e-4,7.81e-4 -5.17e-4,0.001 -0.002,0.0019 -0.0054,0.0031 -0.01034,0.0031 -0.16087,0 -0.19057,0.129941 -0.04961,0.217041 0.05115,0.03162 0.569892,0.109849 1.152902,0.174149 2.30769,0.25434 2.901635,0.629297 3.769795,2.381767 l 0.360702,0.728121 -0.0041,1.191658 c -0.0027,0.8824 -0.04427,1.345488 -0.160714,1.784388 -0.19165,0.72253 -0.186966,0.940065 0.03772,1.759065 0.31227,1.13822 0.375064,2.785487 0.162264,4.251937 -0.1097,0.75595 -0.103892,0.786237 0.397908,2.116667 0.30814,0.81823 0.319227,0.88253 0.315227,1.90531 -0.0034,0.8624 -0.06031,1.340421 -0.307475,2.582271 -0.37461,1.88213 -0.560368,3.248664 -0.621668,4.571814 -0.04066,0.87699 -0.01735,1.166597 0.172083,2.116667 0.29967,1.50303 0.293543,1.887506 -0.03411,2.201416 -0.1397,0.13384 -0.253731,0.284663 -0.253731,0.334863 0,0.05018 -0.165536,0.251368 -0.367936,0.447518 l -0.367936,0.357084 -0.521416,-0.09198 c -0.59972,-0.10563 -0.944128,-0.334325 -0.944128,-0.626835 0,-0.12462 -0.133816,-0.33491 -0.348816,-0.54777 -0.3286,-0.3253 -0.345622,-0.366236 -0.293522,-0.701766 0.03043,-0.19597 0.263911,-0.795695 0.518831,-1.332735 0.57273,-1.20654 0.735392,-1.950308 0.748792,-3.426148 l 0.0098,-1.100708 -0.485241,-1.439188 c -0.62918,-1.8675 -0.758644,-2.451719 -0.759644,-3.432349 -8.9e-4,-0.60476 0.05421,-1.016176 0.219625,-1.637626 0.2822,-1.06023 0.277611,-1.455522 -0.02739,-2.446362 -0.34724,-1.12807 -0.421345,-1.599631 -0.503845,-3.194121 -0.09716,-1.87823 -0.07424,-2.225278 0.195337,-2.919718 0.35732,-0.92039 0.492724,-1.60084 0.392224,-1.97404 -0.08528,-0.316721 -0.559588,-1.132854 -0.638204,-1.104325 -2.97e-4,1.38e-4 -7.48e-4,3.52e-4 -0.001,5.17e-4 l -5.17e-4,5.16e-4 -5.17e-4,5.17e-4 c -3.85e-4,4.06e-4 -7.84e-4,7.84e-4 -0.001,0.001 l -5.17e-4,5.16e-4 -5.17e-4,5.17e-4 c -0.01429,0.03169 0.06799,0.325858 0.187069,0.664559 0.22067,0.62762 0.221147,0.633803 0.08837,1.286743 -0.25011,1.2298 -0.780974,2.021075 -1.554944,2.316655 -0.29793,0.1138 -0.561866,0.133085 -1.351856,0.09819 -0.531803,-0.02347 -0.813109,-0.01591 -0.839742,0.01912 l -5.16e-4,5.17e-4 v 5.17e-4 c -1.13e-4,2.77e-4 -4.35e-4,0.0013 -5.17e-4,0.0015 -8e-5,4.27e-4 -3.98e-4,0.0019 -5.17e-4,0.0026 v 5.17e-4 c 1.18e-4,3.2e-4 4.88e-4,8.98e-4 5.17e-4,0.001 0.01039,0.03458 0.217574,0.0915 0.622701,0.167949 0.63568,0.11994 1.730271,0.05926 2.159041,-0.11989 l 0.289905,-0.121439 0.04858,0.470255 c 0.0267,0.2586 0.01214,0.664137 -0.03256,0.901237 -0.12812,0.67926 -0.741857,2.557077 -1.094507,3.349667 -0.38833,0.87286 -0.46137,1.103291 -0.3514,1.103291 0.04581,0 0.100123,-0.04774 0.120923,-0.105936 0.12036,-0.33699 0.187901,0.211048 0.181901,1.488798 -0.0054,1.25281 -0.03184,1.529642 -0.189653,2.004012 -0.31716,0.95334 -0.205169,1.119824 0.194821,0.289904 l 0.195853,-0.406693 0.0956,0.333313 c 0.05259,0.18342 0.148407,0.962294 0.212907,1.730644 0.0645,0.76835 0.161924,1.511362 0.216524,1.651062 0.1735,0.44399 0.410551,1.826305 0.515731,3.006535 0.16448,1.84517 0.14611,5.289671 -0.03359,6.306591 -0.37842,2.14142 -0.942031,4.218471 -1.470711,5.418791 -0.26655,0.6052 -0.298523,0.752883 -0.293523,1.389063 0.0028,0.3916 -0.06951,1.096949 -0.160713,1.566829 -0.20601,1.06304 -0.205831,1.095947 -0.0047,1.043347 0.13445,-0.03515 0.182405,0.03653 0.291455,0.434599 0.39824,1.4538 0.607883,3.274423 0.529683,4.600753 -0.07331,1.24354 -0.244528,2.160308 -0.699698,3.750158 -0.99825,3.48681 -1.463679,5.731086 -1.348239,6.500896 0.06976,0.46517 0.525221,1.243188 1.028361,1.756998 0.20677,0.21115 0.376205,0.411118 0.376205,0.444418 v 5.16e-4 5.17e-4 l -5.17e-4,5.17e-4 c -9.7e-5,2.58e-4 -3.88e-4,0.0013 -5.17e-4,0.0015 -0.01972,0.03152 -0.278458,0.05736 -0.591695,0.05736 -0.377097,0 -0.562682,0.02306 -0.580326,0.05426 -4.16e-4,9.05e-4 -8.96e-4,0.0027 -0.001,0.0036 -6.1e-5,0.0012 8.7e-5,0.0034 5.17e-4,0.0046 0.01961,0.04465 0.347723,0.103087 0.921908,0.137977 1.02476,0.06224 1.631516,0.240668 1.588016,0.466638 -0.02355,0.12196 -0.233881,0.135523 -1.930631,0.120923 -2.32025,-0.01993 -3.013102,-0.04914 -3.094902,-0.130742 -0.03446,-0.03436 0.02319,-0.387635 0.128158,-0.784965 0.14977,-0.56677 0.179576,-0.844911 0.137976,-1.291911 -0.03851,-0.4131 -0.0147,-0.697975 0.0863,-1.035595 0.10752,-0.35949 0.148217,-0.957926 0.179317,-2.624646 0.04737,-2.53644 -0.07636,-3.94154 -0.492993,-5.58829 -0.23041,-0.91075 -0.273175,-1.247012 -0.304375,-2.412772 -0.03089,-1.15462 -0.01205,-1.442028 0.127641,-1.947168 0.09014,-0.32597 0.253399,-0.922808 0.362769,-1.326018 l 0.198954,-0.733288 -0.147278,-0.875399 c -0.18204,-1.08074 -0.184345,-1.803206 -0.0088,-2.503206 0.14829,-0.5913 0.140798,-0.751636 -0.119372,-2.605526 -0.23286,-1.65925 -0.340994,-3.238799 -0.409794,-5.992399 l -0.05581,-2.247408 -0.219625,-0.03101 c -0.52564,-0.07443 -0.515814,-0.100272 -0.516764,1.397848 -0.0019,3.03361 -0.276604,7.089927 -0.548804,8.100797 -0.16381,0.60834 -0.159938,0.723215 0.04599,1.364775 0.20348,0.63389 0.207873,1.471417 0.01395,2.560567 -0.13999,0.78626 -0.111494,0.983785 0.369486,2.551265 0.21483,0.70022 0.234262,0.878776 0.239262,2.201416 0.0049,1.30373 -0.01574,1.519276 -0.221175,2.286166 -0.36913,1.37801 -0.496604,2.351478 -0.548804,4.190958 -0.0542,1.91155 0.06452,3.763716 0.284221,4.437456 0.1123,0.34408 0.11884,0.488695 0.03824,0.837675 -0.08722,0.37789 -0.07335,0.504435 0.131258,1.212845 0.123667,0.428135 0.201204,0.803316 0.175184,0.84336 l -5.17e-4,5.17e-4 h -5.17e-4 v 5.16e-4 5.17e-4 c -0.02977,0.02978 -0.294273,0.06965 -0.587044,0.08837 -1.391185,0.08898 -4.4576303,0.116399 -4.5046349,0.04031 -0.089586,-0.14495 0.3642463,-0.417138 0.7777303,-0.466638 0.22031,-0.02634 0.6958931,-0.07294 1.0567831,-0.102836 0.3580705,-0.02969 0.6512105,-0.08712 0.6557735,-0.128157 v -5.17e-4 c 0,-0.0012 -1.11e-4,-0.0034 -5.16e-4,-0.0047 l -5.17e-4,-5.17e-4 c -0.02385,-0.03845 -0.2863025,-0.06976 -0.6030641,-0.06976 H 9.0351074 L 9.4237142,72.79814 c 0.51861,-0.55443 0.9608868,-1.259357 1.0753868,-1.714107 0.07822,-0.31062 0.05802,-0.566149 -0.12299,-1.565279 -0.24283,-1.34032 -0.4316764,-2.100043 -1.1441164,-4.602303 -0.76679,-2.69323 -0.8046691,-2.918977 -0.8066691,-4.868437 -0.00211,-1.72234 0.061031,-2.308921 0.3927409,-3.638021 0.20116,-0.80604 0.2209241,-0.843815 0.3746541,-0.716235 0.16786,0.13927 0.1565107,-0.113519 -0.049609,-1.106909 -0.09321,-0.44915 -0.164197,-1.109169 -0.160197,-1.494999 0.00602,-0.63329 -0.021967,-0.754579 -0.3374471,-1.455209 C 8.0461734,50.305711 7.3561491,47.668846 7.0739871,45.630806 6.9220601,44.533466 6.909635,43.36794 7.0259281,41.06571 7.1174991,39.25291 7.200653,38.600497 7.499801,37.343457 7.619049,36.842367 7.739032,35.975965 7.787122,35.269165 7.832548,34.601575 7.9226098,33.88398 7.9871098,33.67443 L 8.1044149,33.293575 8.2873494,33.692 c 0.29424,0.64156 0.5262466,0.687081 0.2992066,0.05891 -0.30744,-0.85071 -0.4606347,-2.559699 -0.3209107,-3.579109 0.04427,-0.32298 0.074649,-0.376106 0.171049,-0.296106 0.23626,0.19607 0.1887621,-0.0019 -0.2216919,-0.918807 C 7.9844424,28.441858 7.6225112,27.46284 7.4109172,26.78131 7.0833012,25.72606 7.0264445,25.436621 7.0264445,24.831041 v -0.711067 l 0.2749186,0.141076 c 0.370889,0.18976 2.1709325,0.199096 2.5884725,0.01344 0.2656604,-0.11813 0.2176644,-0.125057 -0.8598958,-0.125057 -1.133801,0 -1.1441108,-0.0017 -1.5068848,-0.256315 C 6.837828,23.412145 6.366148,22.45992 6.286438,21.39766 6.252193,20.94131 6.2820316,20.75694 6.4605876,20.31814 6.5716204,20.04529 6.6442855,19.818784 6.6311198,19.791557 v -5.17e-4 l -5.168e-4,-5.17e-4 -5.167e-4,-5.16e-4 -5.168e-4,-5.17e-4 h -5.168e-4 l -5.167e-4,-5.17e-4 h -5.168e-4 -5.168e-4 c -0.192173,0 -0.7001491,1.051104 -0.7012491,1.451074 -0.00101,0.37746 0.3609282,1.651916 0.6046142,2.129586 0.169831,0.33288 0.1761949,0.437273 0.1317749,2.046903 -0.051784,1.87631 -0.1115969,2.325763 -0.4826579,3.612183 -0.295887,1.0258 -0.3173314,1.558087 -0.088883,2.222087 0.230116,0.66885 0.3673971,1.768834 0.3023071,2.423624 -0.068589,0.69003 -0.3576517,1.778331 -0.8206217,3.090251 -0.339993,0.96345 -0.3587686,1.066243 -0.3627686,1.989543 -0.00231,0.53552 0.04597,1.35489 0.1069702,1.82056 0.095914,0.73219 0.1723827,0.97226 0.5663737,1.77767 0.435143,0.88953 0.6335866,1.438104 0.6345866,1.754414 2.6e-4,0.07994 -0.134123,0.279334 -0.298173,0.443384 -0.164051,0.16405 -0.3216962,0.415799 -0.3503662,0.559139 -0.064278,0.32139 -0.3165629,0.493534 -0.9322429,0.636654 l -0.47439,0.110587 -0.315743,-0.312642 C 3.9733537,45.37207 3.6690072,45.042158 3.4705892,44.811218 L 3.1098877,44.391606 3.15743,43.79526 c 0.026199,-0.32786 0.1297611,-0.996231 0.2299601,-1.485181 0.15016,-0.73272 0.1728579,-1.052424 0.1297079,-1.820044 -0.066624,-1.18528 -0.3027899,-2.863094 -0.6909139,-4.905644 -0.277406,-1.46011 -0.302621,-1.709752 -0.269751,-2.711462 0.034298,-1.04509 0.053432,-1.143465 0.3550171,-1.861385 0.362048,-0.86186 0.3748381,-1.014872 0.2211751,-2.564702 -0.126987,-1.28078 -0.048098,-2.422734 0.2542481,-3.691764 L 3.5651571,24.00577 3.3889404,23.254911 c -0.260206,-1.10833 -0.3190085,-2.449099 -0.1348755,-3.082499 0.252519,-0.86863 0.7720743,-1.753601 1.3084473,-2.229321 0.542023,-0.48074 1.3573385,-0.733899 2.8230835,-0.875399 1.011467,-0.09769 1.3573054,-0.197205 1.0164754,-0.293005 -0.104804,-0.02945 -0.190686,-0.08329 -0.190686,-0.11989 0,-0.06001 2.3851529,-1.522387 2.4830529,-1.522387 h 5.16e-4 5.17e-4 c 1.85e-4,6.9e-5 0.0014,4.25e-4 0.0015,5.16e-4 h 5.17e-4 c 0.02344,0.01671 0.06614,0.200845 0.09664,0.422714 0.03202,0.23278 0.09861,0.44834 0.148312,0.47904 0.0018,0.0011 0.0044,0.0019 0.0062,0.0021 2.89e-4,4e-6 7.52e-4,2.6e-5 0.001,0 h 5.17e-4 c 6.73e-4,-2.49e-4 0.0016,-8.45e-4 0.0021,-0.001 2.94e-4,-1.56e-4 0.0013,-8.47e-4 0.0015,-10e-4 0.07279,-0.05519 0.03336,-1.102575 -0.08268,-2.050004 z m 3.699515,3.769796 -0.372587,0.03514 c -0.412666,0.03869 -0.645558,0.222266 -0.732255,0.576709 -0.07493,0.30806 0.08143,0.302693 0.209807,-0.0072 0.06595,-0.15922 0.233597,-0.302023 0.497127,-0.422713 z m -2.482019,0.0052 c -0.07878,0.0025 -0.125884,0.0063 -0.135392,0.0186 v 5.17e-4 h -5.17e-4 v 5.16e-4 5.17e-4 c -1.5e-4,4.08e-4 -7.79e-4,0.0019 -10e-4,0.0026 -4.44e-4,0.0215 0.08329,0.0641 0.268717,0.149345 0.21193,0.09743 0.412259,0.267825 0.488859,0.415995 0.07141,0.13809 0.16699,0.251148 0.21239,0.251148 0.10872,0 0.104963,-0.03628 -0.04031,-0.383956 -0.12992,-0.31095 -0.402507,-0.46747 -0.792717,-0.45527 z m -5.0405188,9.179285 0.2666504,0.84646 c 0.146716,0.46566 0.3930511,1.113219 0.5477701,1.439189 0.256377,0.54012 0.2750058,0.630158 0.2067058,1.015958 -0.0413,0.23283 -0.083501,1.033116 -0.092501,1.778186 -0.013393,1.05346 -0.050776,1.448986 -0.1684652,1.778186 -0.011692,0.0327 -0.024199,0.09189 -0.036174,0.138493 -0.070068,0.282283 -0.1273778,0.769256 -0.1891358,1.308964 -0.013156,0.131044 -0.029298,0.232528 -0.040824,0.372587 -0.06774,0.82306 -0.2022826,1.755372 -0.3276286,2.269112 -0.1087311,0.445639 -0.226237,1.115729 -0.2852539,1.573548 -0.00573,0.0454 -0.017339,0.09017 -0.022738,0.136426 -0.051732,0.457301 -0.1221852,1.534539 -0.1565795,2.413289 L 6.6357707,43.19943 6.1954875,42.302844 c -0.363016,-0.73998 -0.46156,-1.043241 -0.565857,-1.735811 -0.039704,-0.263658 -0.033414,-0.350804 -0.060461,-0.557072 -0.00583,-0.04052 -0.010988,-0.04818 -0.017053,-0.09095 -0.009,-0.06346 -0.00658,-0.128763 -0.013953,-0.192236 -0.096638,-0.852719 -0.1007559,-1.37992 0.073897,-1.946134 0.689728,-2.23607 0.9104122,-3.02577 0.9994222,-3.57756 0.021113,-0.130877 0.036858,-0.274321 0.047542,-0.425814 0.024288,-0.344374 0.022315,-0.730843 -0.00258,-1.106909 -0.034505,-0.52115 -0.1128513,-1.022443 -0.2268595,-1.366325 -0.255263,-0.76994 -0.2478681,-1.503696 0.022221,-2.202966 0.193191,-0.50018 0.2604054,-0.803651 0.4769734,-2.157491 z m 12.4085448,0.118339 h 5.17e-4 5.17e-4 c 3.48e-4,1.8e-5 7.1e-4,-9e-6 0.001,0 h 5.17e-4 l 5.17e-4,5.17e-4 h 5.16e-4 5.17e-4 l 5.17e-4,5.17e-4 h 5.17e-4 c 0.0017,0.0013 0.004,0.004 0.0052,0.0072 0.02419,0.06985 0.08768,0.451157 0.141077,0.846977 0.05336,0.39581 0.208292,1.042028 0.344682,1.436088 0.30362,0.87723 0.318498,1.451661 0.06098,2.401921 -0.147791,0.545535 -0.187326,0.920286 -0.187585,1.78542 2.88e-4,0.30504 0.0084,0.606004 0.03411,0.888835 0.0171,0.191352 0.04514,0.379816 0.08475,0.578259 0.0089,0.04571 0.01949,0.09546 0.03049,0.144694 0.113028,0.507905 0.30515,1.108258 0.657841,2.13062 0.39309,1.13946 0.433982,1.328127 0.430982,1.979207 -0.002,0.39582 -0.06333,1.133703 -0.136426,1.639693 -0.11379,0.78802 -0.192937,1.040296 -0.551387,1.759066 l -0.41858,0.839225 -0.04392,-0.361735 c -0.02408,-0.19919 -0.08403,-1.067074 -0.133326,-1.928564 -0.10072,-1.76011 -0.169018,-2.279776 -0.469738,-3.560506 -0.11539,-0.4914 -0.248706,-1.386623 -0.296106,-1.989543 -0.09275,-1.17858 -0.217146,-1.926552 -0.364836,-2.197282 -0.05174,-0.0948 -0.099,-0.690799 -0.108004,-1.354439 -0.0088,-0.65194 -0.05642,-1.447935 -0.10542,-1.768885 -0.08436,-0.55273 -0.0772,-0.606348 0.132809,-1.015958 0.12195,-0.23785 0.363675,-0.870606 0.537435,-1.406116 0.157682,-0.485968 0.305728,-0.845241 0.349849,-0.855245 z m -6.125208,15.568559 c 0.0296,0.04799 0.06527,0.824129 0.07906,1.724959 0.04863,3.1673 0.232988,5.64394 0.536918,7.21558 0.17197,0.88931 0.173109,0.937106 0.03204,1.403016 -0.07211,0.237988 -0.107543,0.573428 -0.108004,1.07642 -1.24e-4,0.01274 6.9e-5,0.02789 0,0.04082 0.0014,0.515225 0.03826,1.200417 0.112655,2.146639 0.04086,0.51973 0.0098,0.71103 -0.254765,1.55236 -0.16591,0.52767 -0.30179,1.032595 -0.30179,1.121895 0,0.30862 -0.146154,0.161256 -0.195854,-0.197404 -0.02745,-0.19791 -0.168489,-0.740974 -0.313159,-1.206644 -0.20494,-0.6596 -0.252808,-0.940407 -0.216008,-1.270207 0.0259,-0.23283 0.07062,-0.945019 0.09922,-1.582849 0.04246,-0.94526 0.02702,-1.233612 -0.08423,-1.560112 -0.15605,-0.45804 -0.173534,-0.853905 -0.05219,-1.173055 0.23112,-0.60788 0.4201,-3.226283 0.56224,-7.780403 0.02021,-0.646605 0.0499,-0.890901 0.07648,-1.11156 0.0011,-0.01357 0.0042,-0.103115 0.0052,-0.111105 0.0018,-0.01532 0.003,-0.01881 0.0047,-0.03101 0.0059,-0.03144 0.01253,-0.265523 0.01757,-0.257348 z m 2.555916,9.340515 c -0.04377,0.0028 -0.132771,0.069 -0.256315,0.200505 -0.21383,0.22762 -0.708727,0.427498 -0.846977,0.342098 -0.0475,-0.02933 -0.0863,0.0031 -0.0863,0.07183 0,0.06872 0.04722,0.144998 0.10542,0.169498 0.28854,0.12122 0.849294,-0.175147 1.043864,-0.551387 0.08158,-0.157755 0.08991,-0.235764 0.04031,-0.232544 z M 10.758,51.5922 l -5.17e-4,5.16e-4 h -5.17e-4 -5.17e-4 l -5.16e-4,5.17e-4 h -5.17e-4 v 5.17e-4 h -5.17e-4 -5.17e-4 l -5.16e-4,5.17e-4 -5.17e-4,5.17e-4 -5.17e-4,5.16e-4 v 5.17e-4 l -5.17e-4,5.17e-4 c -9.2e-5,2.21e-4 -4.42e-4,0.0013 -5.16e-4,0.0016 -1.26e-4,5.68e-4 -4.11e-4,0.0023 -5.17e-4,0.0031 0,0.14073 0.280735,0.464714 0.538985,0.622184 0.30645,0.18687 0.486009,0.204388 0.629419,0.06098 0.1613,-0.1613 0.121957,-0.203088 -0.191203,-0.203088 -0.20371,0 -0.397163,-0.08371 -0.635103,-0.274919 -0.161692,-0.129946 -0.298139,-0.21657 -0.333313,-0.21394 -3.2e-4,2.3e-5 -0.0012,1.5e-5 -0.0016,0 z m 5.562968,0.203088 c -0.03772,0.0022 -0.06615,0.02563 -0.06615,0.07131 0,0.04029 0.07868,0.173416 0.175183,0.296106 0.18089,0.22993 0.370069,0.276917 0.579809,0.144177 0.0922,-0.05836 0.05038,-0.105338 -0.179834,-0.201538 -0.16529,-0.06905 -0.326934,-0.167808 -0.358634,-0.219108 -0.0385,-0.06233 -0.101877,-0.09381 -0.150378,-0.09095 z m -6.018238,0.01447 c -0.02054,0.0011 -0.05728,0.03201 -0.12299,0.09147 -0.08157,0.07382 -0.2614284,0.176943 -0.3994584,0.229443 -0.19955,0.07583 -0.2253073,0.11175 -0.1266073,0.17415 0.06827,0.0432 0.1717601,0.07887 0.2299601,0.07958 0.1519406,0.0019 0.4444176,-0.31241 0.4444176,-0.47749 0,-0.06613 -0.0035,-0.09833 -0.02532,-0.09715 z m 1.699121,1.201994 -5.16e-4,5.17e-4 c -3.65e-4,2.01e-4 -7.31e-4,3.65e-4 -10e-4,5.17e-4 -0.03556,0.02233 -0.06471,0.302699 -0.06563,0.659391 -0.0027,0.93562 -0.103771,1.336327 -0.395841,1.570447 l -0.237195,0.190169 0.216524,5.17e-4 c 0.35283,6.8e-4 0.49956,-0.173762 0.58446,-0.696082 0.08506,-0.52387 0.02342,-1.651842 -0.09405,-1.724442 -0.0012,-6.1e-4 -0.0034,-10e-4 -0.0047,-10e-4 h -5.16e-4 -5.17e-4 -5.17e-4 z m 2.621029,0.05168 c -0.228646,0.02923 -0.176965,1.93364 0.06304,2.198832 0.08548,0.09447 0.254321,0.171015 0.375171,0.170015 l 0.219625,-0.0021 -0.186035,-0.146244 c -0.27185,-0.21363 -0.344738,-0.485168 -0.377238,-1.400948 -0.01525,-0.429535 -0.0524,-0.785099 -0.08423,-0.817521 -2.6e-4,-2.22e-4 -0.0013,-8.55e-4 -0.0015,-10e-4 l -5.17e-4,-5.17e-4 v -5.16e-4 h -5.16e-4 -5.17e-4 -5.17e-4 -5.17e-4 -5.17e-4 c -0.0018,-4e-6 -0.0039,-2.3e-4 -0.0057,0 z m 2.320789,0.39119 c -0.03996,0.0061 -0.08893,0.192017 -0.127124,0.557589 -0.07545,0.72193 -0.35469,1.268815 -0.7059,1.382345 -0.14908,0.04819 -0.301798,0.119663 -0.338998,0.159163 -0.131431,0.140789 0.747111,-0.01887 0.908989,-0.165365 0.22752,-0.20591 0.33482,-0.64648 0.33538,-1.37821 2.89e-4,-0.37665 -0.03112,-0.561787 -0.07235,-0.555522 z m -7.3246179,0.04496 c -0.0513,0.006 -0.068113,0.258066 -0.023254,0.740523 0.0704,0.75744 0.1952214,1.08739 0.4661209,1.23455 v 5.17e-4 c 0.12312,0.06692 0.37597,0.119856 0.56224,0.118856 l 0.338997,-0.0031 -0.353983,-0.157096 C 10.141392,55.225832 10.00733,54.999294 9.8252405,54.106264 9.7408455,53.69237 9.665757,53.494105 9.6190515,53.499583 Z"
     sodipodi:nodetypes="ccccscccccccsscssccsssssssscscccsssssccssccsccccccccccccccscccscsscccscccscccccscssscccccccssssscccccccsccccccccccccscccccccccccccscsccccssccsscscccscccsccscccsscccccsscccscscccccsscccccccscccccccccccccccccccsccccccsccssccscscsssccccsccccccsccccssscccsscccsscsccscccsccccccccccsccsccssccscccsssssccccssscsccsscscccccccccsccssssscsssssccccccsscssscccscccsscccccsccccccccccscccccccccscssccccccsccsscccccscscssssssccccccccccccccscccccscccccssccccsscsccccssscccccsccscsssssccsccccccccccccccccsssssccsscsccsssccssscccccccccsccccsccccsccccccccssscsccsssccccccsscsccccccsss" /><path
     id="path36"
     style="fill:#000000;stroke-width:0.668216;stroke-linecap:round;stroke-linejoin:round;paint-order:stroke fill markers"
     d="M 26.433594 100.8418 C 26.394585 101.94166 25.182104 107.8768 24.66211 109.51367 C 23.770158 112.32131 23.755672 112.40613 23.763672 114.26953 C 23.768971 115.50894 23.912081 116.44207 24.392578 118.3418 C 24.828905 120.06688 25.076045 121.56681 25.216797 123.33985 C 25.570113 127.79054 25.172266 130.08047 22.533203 138.76953 C 20.590408 145.16614 20.540232 145.56063 21.041016 150.39844 C 21.543899 155.25653 21.80559 156.22329 23.640625 160.02539 C 24.332525 161.45897 24.921479 162.60973 24.949219 162.58203 C 24.976959 162.55429 25.082335 160.62638 25.183594 158.29688 C 25.567593 149.46285 25.799998 147.31851 27.046875 141.15625 C 27.381316 139.50339 27.900147 135.96281 28.199219 133.28906 C 28.716889 128.66102 29.020799 126.71464 29.44336 125.33399 C 29.547511 124.99369 29.745012 122.13058 29.882813 118.9707 C 30.020615 115.81081 30.184134 112.74472 30.246094 112.1582 C 30.353566 111.14086 30.313509 110.98431 29.355469 108.75586 C 28.803145 107.47113 27.920019 105.12719 27.394532 103.54688 C 26.869045 101.96656 26.436894 100.7495 26.433594 100.8418 z M 73.26172 101.11719 C 73.138429 101.11719 73.024637 101.40769 71.580079 105.44727 C 71.128088 106.71122 70.437663 108.45951 70.044923 109.33203 L 69.330079 110.91797 L 69.544923 112.76172 C 69.662782 113.77564 69.832166 116.48301 69.921876 118.77735 C 70.102607 123.39933 70.199995 124.42091 70.539063 125.23242 C 70.907012 126.11304 71.307959 128.50544 71.601563 131.58399 C 71.988129 135.6373 72.319774 137.85757 73.109376 141.64649 C 74.016212 145.99797 74.258573 147.99904 74.687501 154.67969 C 74.884137 157.74235 75.09824 160.76452 75.16211 161.39649 L 75.277345 162.54688 L 76.484376 160.07422 C 77.148355 158.71434 77.848826 157.12373 78.041017 156.53906 C 78.806314 154.21095 79.376468 149.17841 79.246095 145.89063 C 79.16421 143.82562 79.149923 143.76675 77.470704 138.68164 C 74.791151 130.56725 74.600852 129.54707 74.736329 124.0293 C 74.810698 121.0004 74.888908 120.21118 75.269532 118.70508 C 76.310151 114.58744 76.274958 113.18002 75.023438 109.04297 C 74.630912 107.74542 74.100583 105.43172 73.845704 103.90039 C 73.590826 102.36907 73.3283 101.11719 73.26172 101.11719 z M 50.246094 160.42578 L 50.109376 161.75 C 50.033931 162.4792 49.883678 165.58187 49.775391 168.64453 C 49.254128 183.38728 48.580716 191.98879 47.722657 194.88477 C 47.358647 196.11331 47.398335 196.87265 47.931641 198.92969 C 48.383971 200.67441 48.394667 200.83707 48.285157 204.17774 C 48.223007 206.07368 48.087745 208.65792 47.984376 209.92188 C 47.797149 212.21123 47.79865 212.22871 48.343751 214.25391 C 48.6447 215.37202 49.165853 217.35932 49.501954 218.67188 C 49.838055 219.98445 50.164586 221.17838 50.228516 221.32422 C 50.24132 221.35343 50.255903 221.37285 50.269532 221.38282 C 50.33427 221.42173 50.410318 221.251 50.480469 220.88282 C 50.554569 220.49391 51.060001 218.63964 51.603516 216.76367 C 52.695401 212.99499 52.735707 212.59133 52.408204 208.68555 C 52.310378 207.51882 52.225151 205.08807 52.218751 203.28516 C 52.20867 200.42924 52.259918 199.79596 52.615235 198.36524 L 53.021485 196.72266 L 52.613282 194.39649 C 51.153506 186.09415 50.654531 179.1108 50.273438 161.66211 L 50.246094 160.42578 z "
     inkscape:label="DONOTRENDER"
     transform="scale(0.26458333)" /><g
     id="g19"
     transform="translate(-91.770834,-108.19516)"
     style="display:inline"><path
       style="fill:#efefef;fill-opacity:1;fill-rule:nonzero;stroke:#d9d9d9;stroke-width:0.1;stroke-linecap:round;stroke-linejoin:round;stroke-dasharray:none;stroke-opacity:1"
       d="m 102.89318,122.5309 0.39103,1.84015 0.59805,0.92007 0.73606,0.18402 -0.20702,-0.57505 -0.57504,-1.63313 z"
       id="path17"
       inkscape:label="front_neck_left"
       sodipodi:nodetypes="ccccccc" /><path
       style="fill:#efefef;fill-opacity:1;fill-rule:nonzero;stroke:#d9d9d9;stroke-width:0.1;stroke-linecap:round;stroke-linejoin:round;stroke-dasharray:none;stroke-opacity:1"
       d="m 102.24913,123.81901 -1.81715,1.00058 2.4382,0.39103 z"
       id="path18"
       inkscape:label="front_traps_left"
       sodipodi:nodetypes="cccc" /><path
       style="fill:#efefef;fill-opacity:1;stroke:#d9d9d9;stroke-width:0.1;stroke-linecap:round;stroke-linejoin:round;stroke-dasharray:none;stroke-opacity:1"
       d="m 98.206285,129.35158 0.416148,-1.46169 0.960777,-0.90967 1.12925,-0.74934 0.88643,-0.38222 0.87016,0.0244 1.87045,0.71564 0.31717,1.43131 0.0651,1.54515 -0.13012,0.84577 -3.69211,-0.78071 h -2.325861 l -0.374089,0.0421 z"
       id="path2"
       inkscape:label="front_chest_upper_left"
       sodipodi:nodetypes="cccccccccccccc" /><path
       style="fill:#efefef;fill-opacity:1;stroke:#d9d9d9;stroke-width:0.1;stroke-linecap:round;stroke-linejoin:round;stroke-dasharray:none;stroke-opacity:1"
       d="m 98.233066,129.92495 1.633618,-0.0752 1.138536,0.0895 1.781,0.39035 1.54515,0.40662 0.3253,0.45542 -0.37409,0.52047 -3.16757,0.4798 -1.455698,-0.0773 -0.784774,-0.71158 z"
       id="path3"
       inkscape:label="front_chest_lower_left"
       sodipodi:nodetypes="ccccccccccc" /><path
       style="fill:#efefef;fill-opacity:1;stroke:#d9d9d9;stroke-width:0.1;stroke-linecap:round;stroke-linejoin:round;stroke-dasharray:none;stroke-opacity:1"
       d="m 96.321787,130.29046 -0.01708,-0.51386 0.219574,-1.30118 0.374089,-1.28492 0.585534,-1.04094 0.601796,-0.5652 1.062961,-0.20442 1.214109,0.0214 0.54158,0.22007 -0.0201,0.17028 -1.334691,0.78071 -1.547128,1.53842 -0.698396,1.28509 -0.866967,1.45331 z"
       id="path4"
       inkscape:label="front_anterior_delts_left"
       sodipodi:nodetypes="ccccccccccccccc" /><path
       style="fill:#efefef;fill-opacity:1;stroke:#d9d9d9;stroke-width:0.1;stroke-linecap:round;stroke-linejoin:round;stroke-dasharray:none;stroke-opacity:1"
       d="m 97.622151,125.67788 -1.26052,0.61806 -0.821371,1.20359 -0.414753,1.17107 0.01627,1.56141 0.195178,1.41504 0.20947,0.65454 0.283237,-0.40301 0.38559,-0.75574 -0.195178,-1.31745 0.195178,-1.23612 0.390356,-1.33371 0.569267,-0.99215 z"
       id="path5"
       inkscape:label="front_side_delts_left"
       sodipodi:nodetypes="cccccccccccccc" /><path
       style="fill:#efefef;fill-opacity:1;stroke:#d9d9d9;stroke-width:0.1;stroke-linecap:round;stroke-linejoin:round;stroke-dasharray:none;stroke-opacity:1"
       d="m 95.302561,133.20376 1.035084,-1.63313 1.012082,-1.54112 0.713057,2.4842 0.138012,1.95516 -0.36803,2.11616 -0.690055,1.65614 -0.828069,0.16101 -1.104087,-0.41403 -0.230019,-2.71422 z"
       id="path6"
       inkscape:label="front_biceps_left"
       sodipodi:nodetypes="ccccccccccc" /><path
       style="fill:#efefef;fill-opacity:1;stroke:#d9d9d9;stroke-width:0.1;stroke-linecap:round;stroke-linejoin:round;stroke-dasharray:none;stroke-opacity:1"
       d="m 94.543501,141.39242 0.322026,-2.13917 0.575047,-0.66705 0.759059,-0.023 0.494541,1.02359 0.04026,4.31285 -0.07476,2.96724 0.046,1.70213 -1.012082,0.66706 -0.529042,-3.31227 -0.552045,-3.05925 z"
       id="path7"
       inkscape:label="front_brachioradialis_left"
       sodipodi:nodetypes="cccccccccccc" /><path
       style="fill:#efefef;fill-opacity:1;stroke:#d9d9d9;stroke-width:0.1;stroke-linecap:round;stroke-linejoin:round;stroke-dasharray:none;stroke-opacity:1"
       d="m 96.898367,145.35825 0.08888,-4.05469 -0.07261,-2.06086 0.113852,-0.52047 0.325295,0.0651 0.487945,1.2036 0.14638,1.72406 -0.2765,1.41504 -0.405801,1.28294 z"
       id="path8"
       inkscape:label="front_forearm_flexors_left"
       sodipodi:nodetypes="cccccccccc" /><path
       style="fill:#efefef;fill-opacity:1;stroke:#d9d9d9;stroke-width:0.1;stroke-linecap:round;stroke-linejoin:round;stroke-dasharray:none;stroke-opacity:1"
       d="m 103.56445,144.78065 -1.13808,-1.7115 -0.63253,-4.41915 -0.21,-3.5 0.28,-2.19 1.06,-0.83 1.13,-0.16 0.58,0.09 0.0855,0.77725 -0.0383,0.71776 0.003,11.51819 -0.007,0.63924 z"
       id="path9"
       inkscape:label="front_abs_left"
       sodipodi:nodetypes="ccccccccccccc" /><path
       style="fill:#efefef;fill-opacity:1;fill-rule:nonzero;stroke:#d9d9d9;stroke-width:0.1;stroke-linecap:round;stroke-linejoin:round;stroke-dasharray:none;stroke-opacity:1"
       d="m 98.86785,132.65172 1.104086,0.23002 1.587134,-0.092 -0.13801,0.92007 -0.11501,2.11617 0.13801,1.51813 0.22607,2.45445 0.32598,1.9619 0.10153,1.07482 -0.69958,-0.55136 -0.73606,-0.61546 -0.29903,-0.73606 -0.22925,-1.66667 0.0452,-0.95554 0.34503,-0.023 -0.046,-0.41403 -0.46003,-1.01208 -0.667061,-1.70214 -0.36803,-1.3111 z"
       id="path10"
       inkscape:label="front_obliques_left"
       sodipodi:nodetypes="cccccccccccccccccccc" /><path
       style="fill:#efefef;fill-opacity:1;fill-rule:nonzero;stroke:#d9d9d9;stroke-width:0.1;stroke-linecap:round;stroke-linejoin:round;stroke-dasharray:none;stroke-opacity:1"
       d="m 102.13968,143.20365 -1.72812,-1.47244 0.78071,1.69153 3.44812,4.45655 0.002,-1.79875 -1.23247,-0.99984 z"
       id="path11"
       sodipodi:nodetypes="ccccccc"
       inkscape:label="front_hip_flexors_left" /><path
       style="fill:#efefef;fill-opacity:1;fill-rule:nonzero;stroke:#d9d9d9;stroke-width:0.1;stroke-linecap:round;stroke-linejoin:round;stroke-dasharray:none;stroke-opacity:1"
       d="m 103.77837,148.66 -0.97589,3.77343 -0.45541,2.66742 v 2.60236 l 0.35782,1.4313 0.71565,0.48794 0.45542,-0.19517 0.16265,-1.23613 0.26023,-5.13966 -0.11389,-3.77343 z"
       id="path12"
       sodipodi:nodetypes="ccccccccccc"
       inkscape:label="front_quad_medialis_left" /><path
       style="fill:#efefef;fill-opacity:1;fill-rule:nonzero;stroke:#d9d9d9;stroke-width:0.1;stroke-linecap:round;stroke-linejoin:round;stroke-dasharray:none;stroke-opacity:1"
       d="m 101.12721,143.8131 1.09927,1.43048 0.64106,1.07429 0.29277,1.4313 -0.0651,1.57768 -0.34156,1.88672 -0.35027,1.49323 -0.34156,1.53317 -0.64188,-3.28664 -0.79698,-3.1391 -0.0976,-1.87045 0.2277,-1.20359 z"
       id="path13"
       inkscape:label="front_quad_femoris_left"
       sodipodi:nodetypes="ccccccccccccc" /><path
       style="fill:#efefef;fill-opacity:1;fill-rule:nonzero;stroke:#d9d9d9;stroke-width:0.1;stroke-linecap:round;stroke-linejoin:round;stroke-dasharray:none;stroke-opacity:1"
       d="m 99.795469,146.49121 c 0.993431,2.41434 0.662751,2.00467 0.948121,3.04151 l 0.77398,3.86033 0.40662,2.56983 0.0976,1.93551 -0.0651,1.17106 -0.30903,0.66686 -0.35782,0.0976 -0.42289,-0.35783 -0.5042,-0.92709 -0.650594,-1.77286 -0.504212,-2.42345 -0.195178,-2.16322 0.09759,-2.63489 c 0,0 0.04066,-1.14397 0.177927,-1.67248 0.136726,-0.52644 0.322195,-1.84047 0.507186,-1.39088 z"
       id="path14"
       inkscape:label="front_quad_lateralis_left"
       sodipodi:nodetypes="scccccccccccccss" /><path
       style="fill:#efefef;fill-opacity:1;fill-rule:nonzero;stroke:#d9d9d9;stroke-width:0.1;stroke-linecap:round;stroke-linejoin:round;stroke-dasharray:none;stroke-opacity:1"
       d="m 99.649914,145.94679 0.120753,-3.49053 0.201267,-0.21277 0.200696,0.18721 c 0.12301,0.11188 0.23239,0.20254 0.35136,0.40508 0.24854,0.45298 0.19955,0.47628 0.21851,0.75906 0.0104,0.32291 -0.0652,0.34311 -0.0805,0.51179 l -0.25302,0.78207 -0.34503,1.03508 z"
       id="path15"
       inkscape:label="front_tfl_left"
       sodipodi:nodetypes="cccccccccc" /><path
       style="fill:#efefef;fill-opacity:1;fill-rule:nonzero;stroke:#d9d9d9;stroke-width:0.1;stroke-linecap:round;stroke-linejoin:round;stroke-dasharray:none;stroke-opacity:1"
       d="m 101.07603,164.25627 1.31111,1.33411 0.96608,12.76603 -0.27602,0.50604 -0.48304,-0.57504 -1.58713,-8.90172 z"
       id="path16"
       inkscape:label="front_shins_left"
       sodipodi:nodetypes="ccccccc" /></g><g
     id="g35"
     transform="matrix(-1,0,0,1,117.91903,-108.19516)"
     style="display:inline"><path
       style="fill:#efefef;fill-opacity:1;fill-rule:nonzero;stroke:#d9d9d9;stroke-width:0.1;stroke-linecap:round;stroke-linejoin:round;stroke-dasharray:none;stroke-opacity:1"
       d="m 102.89318,122.5309 0.39103,1.84015 0.59805,0.92007 0.73606,0.18402 -0.20702,-0.57505 -0.57504,-1.63313 z"
       id="path19"
       inkscape:label="front_neck_right"
       sodipodi:nodetypes="ccccccc" /><path
       style="fill:#efefef;fill-opacity:1;fill-rule:nonzero;stroke:#d9d9d9;stroke-width:0.1;stroke-linecap:round;stroke-linejoin:round;stroke-dasharray:none;stroke-opacity:1"
       d="m 102.24913,123.81901 -1.81715,1.00058 2.4382,0.39103 z"
       id="path20"
       inkscape:label="front_traps_right"
       sodipodi:nodetypes="cccc" /><path
       style="fill:#efefef;fill-opacity:1;stroke:#d9d9d9;stroke-width:0.1;stroke-linecap:round;stroke-linejoin:round;stroke-dasharray:none;stroke-opacity:1"
       d="m 98.100453,129.35158 0.416148,-1.46169 0.960777,-0.90967 1.129242,-0.74934 0.88643,-0.38222 0.87016,0.0244 1.87045,0.71564 0.31717,1.43131 0.0651,1.54515 -0.13012,0.84577 -3.69211,-0.78071 h -2.325853 l -0.374089,0.0421 z"
       id="path21"
       inkscape:label="front_chest_upper_right"
       sodipodi:nodetypes="cccccccccccccc" /><path
       style="fill:#efefef;fill-opacity:1;stroke:#d9d9d9;stroke-width:0.1;stroke-linecap:round;stroke-linejoin:round;stroke-dasharray:none;stroke-opacity:1"
       d="m 98.127234,129.92495 1.633618,-0.0752 1.138528,0.0895 1.781,0.39035 1.54515,0.40662 0.3253,0.45542 -0.37409,0.52047 -3.16757,0.4798 -1.45569,-0.0773 -0.784774,-0.71158 z"
       id="path22"
       inkscape:label="front_chest_lower_right"
       sodipodi:nodetypes="ccccccccccc" /><path
       style="fill:#efefef;fill-opacity:1;stroke:#d9d9d9;stroke-width:0.1;stroke-linecap:round;stroke-linejoin:round;stroke-dasharray:none;stroke-opacity:1"
       d="m 96.189497,130.29046 -0.01708,-0.51386 0.219574,-1.30118 0.374089,-1.28492 0.585534,-1.04094 0.601796,-0.5652 1.062961,-0.20442 1.214099,0.0214 0.54158,0.22007 -0.0201,0.17028 -1.334681,0.78071 -1.547128,1.53842 -0.698396,1.28509 -0.866967,1.45331 z"
       id="path23"
       inkscape:label="front_anterior_delts_right"
       sodipodi:nodetypes="ccccccccccccccc" /><path
       style="fill:#efefef;fill-opacity:1;stroke:#d9d9d9;stroke-width:0.1;stroke-linecap:round;stroke-linejoin:round;stroke-dasharray:none;stroke-opacity:1"
       d="m 97.489861,125.67788 -1.26052,0.61806 -0.821371,1.20359 -0.414753,1.17107 0.01627,1.56141 0.195178,1.41504 0.20947,0.65454 0.283237,-0.40301 0.38559,-0.75574 -0.195178,-1.31745 0.195178,-1.23612 0.390356,-1.33371 0.569267,-0.99215 z"
       id="path24"
       inkscape:label="front_side_delts_right"
       sodipodi:nodetypes="cccccccccccccc" /><path
       style="fill:#efefef;fill-opacity:1;stroke:#d9d9d9;stroke-width:0.1;stroke-linecap:round;stroke-linejoin:round;stroke-dasharray:none;stroke-opacity:1"
       d="m 95.143813,133.20376 1.035084,-1.63313 1.012082,-1.54112 0.713057,2.4842 0.138012,1.95516 -0.36803,2.11616 -0.690055,1.65614 -0.828069,0.16101 -1.104087,-0.41403 -0.230019,-2.71422 z"
       id="path25"
       inkscape:label="front_biceps_right"
       sodipodi:nodetypes="ccccccccccc" /><path
       style="fill:#efefef;fill-opacity:1;stroke:#d9d9d9;stroke-width:0.1;stroke-linecap:round;stroke-linejoin:round;stroke-dasharray:none;stroke-opacity:1"
       d="m 94.226005,141.39242 0.346831,-2.06476 0.550242,-0.74146 0.759059,-0.023 0.494541,1.02359 0.04026,4.31285 -0.07476,2.96724 0.046,1.70213 -1.012082,0.66706 -0.529042,-3.31227 -0.552045,-3.05925 z"
       id="path26"
       inkscape:label="front_brachioradialis_right"
       sodipodi:nodetypes="cccccccccccc" /><path
       style="fill:#efefef;fill-opacity:1;stroke:#d9d9d9;stroke-width:0.1;stroke-linecap:round;stroke-linejoin:round;stroke-dasharray:none;stroke-opacity:1"
       d="m 96.607329,145.35825 0.08888,-4.05469 -0.07261,-2.06086 0.113852,-0.52047 0.325295,0.0651 0.487945,1.2036 0.14638,1.72406 -0.2765,1.41504 -0.405801,1.28294 z"
       id="path27"
       inkscape:label="front_forearm_flexors_right"
       sodipodi:nodetypes="cccccccccc" /><path
       style="fill:#efefef;fill-opacity:1;stroke:#d9d9d9;stroke-width:0.1;stroke-linecap:round;stroke-linejoin:round;stroke-dasharray:none;stroke-opacity:1"
       d="m 103.53799,144.78065 -1.13808,-1.7115 -0.63253,-4.41915 -0.21,-3.5 0.28,-2.19 1.06,-0.83 1.13,-0.16 0.58,0.09 0.0855,0.77725 -0.0383,0.71776 -0.11346,11.48311 -0.034,0.66262 z"
       id="path28"
       inkscape:label="front_abs_right"
       sodipodi:nodetypes="ccccccccccccc" /><path
       style="fill:#efefef;fill-opacity:1;fill-rule:nonzero;stroke:#d9d9d9;stroke-width:0.1;stroke-linecap:round;stroke-linejoin:round;stroke-dasharray:none;stroke-opacity:1"
       d="m 98.797692,132.61664 1.174244,0.2651 1.587134,-0.092 -0.13801,0.92007 -0.11501,2.11617 0.13801,1.51813 0.22607,2.45445 0.32598,1.9619 0.10153,1.07482 -0.69958,-0.55136 -0.73606,-0.61546 -0.57966,-0.79453 -0.11232,-1.57313 0.04523,-1.03738 0.29826,0.0355 -0.046,-0.4608 -0.460035,-1.08224 -0.55013,-1.60859 -0.379723,-1.3228 z"
       id="path29"
       inkscape:label="front_obliques_right"
       sodipodi:nodetypes="cccccccccccccccccccc" /><path
       style="fill:#efefef;fill-opacity:1;fill-rule:nonzero;stroke:#d9d9d9;stroke-width:0.1;stroke-linecap:round;stroke-linejoin:round;stroke-dasharray:none;stroke-opacity:1"
       d="m 102.12985,143.23873 -1.96966,-1.60674 0.84686,1.79075 3.44812,4.45655 0.0272,-1.79733 -1.15202,-1.05973 z"
       id="path30"
       sodipodi:nodetypes="ccccccc"
       inkscape:label="front_hip_flexors_right" /><path
       style="fill:#efefef;fill-opacity:1;fill-rule:nonzero;stroke:#d9d9d9;stroke-width:0.1;stroke-linecap:round;stroke-linejoin:round;stroke-dasharray:none;stroke-opacity:1"
       d="m 103.40793,148.66 -0.97589,3.77343 -0.45541,2.66742 v 2.60236 l 0.35782,1.4313 0.71565,0.48794 0.45542,-0.19517 0.16265,-1.23613 0.26023,-5.13966 -0.11389,-3.77343 z"
       id="path31"
       sodipodi:nodetypes="ccccccccccc"
       inkscape:label="front_quad_medialis_right" /><path
       style="fill:#efefef;fill-opacity:1;fill-rule:nonzero;stroke:#d9d9d9;stroke-width:0.1;stroke-linecap:round;stroke-linejoin:round;stroke-dasharray:none;stroke-opacity:1"
       d="m 100.75677,143.8131 1.09927,1.43048 0.64106,1.07429 0.29277,1.4313 -0.0651,1.57768 -0.34156,1.88672 -0.35027,1.49323 -0.34156,1.53317 -0.64188,-3.28664 -0.79698,-3.1391 -0.0976,-1.87045 0.2277,-1.20359 z"
       id="path32"
       inkscape:label="front_quad_femoris_right"
       sodipodi:nodetypes="ccccccccccccc" /><path
       style="fill:#efefef;fill-opacity:1;fill-rule:nonzero;stroke:#d9d9d9;stroke-width:0.1;stroke-linecap:round;stroke-linejoin:round;stroke-dasharray:none;stroke-opacity:1"
       d="m 99.425057,146.49121 c 0.993403,2.41434 0.662723,2.00467 0.948093,3.04151 l 0.77398,3.86033 0.40662,2.56983 0.0976,1.93551 -0.0651,1.17106 -0.30903,0.66686 -0.35782,0.0976 -0.42289,-0.35783 -0.504198,-0.92709 -0.650568,-1.77286 -0.504212,-2.42345 -0.195178,-2.16322 0.09759,-2.63489 c 0,0 0.04066,-1.14397 0.177927,-1.67248 0.136726,-0.52644 0.322195,-1.84047 0.507186,-1.39088 z"
       id="path33"
       inkscape:label="front_quad_lateralis_right"
       sodipodi:nodetypes="scccccccccccccss" /><path
       style="fill:#efefef;fill-opacity:1;fill-rule:nonzero;stroke:#d9d9d9;stroke-width:0.1;stroke-linecap:round;stroke-linejoin:round;stroke-dasharray:none;stroke-opacity:1"
       d="m 99.358876,145.94679 0.120753,-3.49053 0.201267,-0.21277 0.200684,0.18721 c 0.123,0.11188 0.23238,0.20254 0.35135,0.40508 0.24854,0.45298 0.19955,0.47628 0.21851,0.75906 0.0104,0.32291 -0.0652,0.34311 -0.0805,0.51179 l -0.25302,0.78207 -0.345012,1.03508 z"
       id="path34"
       inkscape:label="front_tfl_right"
       sodipodi:nodetypes="cccccccccc" /><path
       style="fill:#efefef;fill-opacity:1;fill-rule:nonzero;stroke:#d9d9d9;stroke-width:0.1;stroke-linecap:round;stroke-linejoin:round;stroke-dasharray:none;stroke-opacity:1"
       d="m 100.59975,164.25627 1.31111,1.33411 0.96608,12.76603 -0.27602,0.50604 -0.48304,-0.57504 -1.58713,-8.90172 z"
       id="path35"
       inkscape:label="front_shins_right"
       sodipodi:nodetypes="ccccccc" /></g></svg>
