<?xml version="1.0" standalone="no"?>
<!DOCTYPE svg PUBLIC "-//W3C//DTD SVG 20010904//EN"
 "http://www.w3.org/TR/2001/REC-SVG-20010904/DTD/svg10.dtd">
<svg version="1.0" xmlns="http://www.w3.org/2000/svg"
 width="379.000000pt" height="600.000000pt" viewBox="0 0 379.000000 600.000000"
 preserveAspectRatio="xMidYMid meet">
<g transform="translate(0.000000,600.000000) scale(0.100000,-0.100000)"
fill="#000000" stroke="none">
<path d="M1850 5751 c-55 -18 -110 -52 -143 -91 -37 -44 -57 -117 -57 -212 0
-40 -2 -45 -19 -41 -11 3 -21 -2 -24 -12 -9 -21 19 -137 35 -150 7 -5 19 -32
26 -59 7 -27 21 -60 32 -74 16 -20 19 -37 16 -93 l-3 -69 -129 -97 c-113 -85
-137 -98 -201 -114 -136 -34 -190 -72 -233 -164 -56 -120 -73 -216 -50 -294 8
-28 6 -40 -10 -66 -40 -64 -51 -116 -51 -229 0 -106 0 -108 -28 -132 -36 -30
-83 -120 -110 -209 -11 -38 -44 -148 -73 -243 l-53 -173 -65 -31 c-67 -32
-196 -150 -185 -169 4 -5 25 -9 48 -9 31 0 48 7 71 28 28 25 27 24 -7 -23 -47
-64 -125 -216 -120 -232 8 -24 42 -13 66 20 13 17 36 53 51 80 25 44 47 67 28
30 -91 -181 -95 -204 -38 -189 19 5 35 27 71 98 26 51 48 95 51 97 2 2 -7 -29
-21 -70 -14 -41 -25 -75 -24 -77 0 -2 -5 -17 -12 -33 -10 -26 -10 -32 2 -40
24 -15 51 14 80 87 32 77 38 70 12 -12 -18 -57 -13 -75 15 -58 25 16 49 62 63
119 6 28 25 78 41 112 16 34 34 88 39 120 16 88 70 188 160 293 111 131 137
188 178 390 14 70 35 131 61 183 l39 79 10 -39 c5 -21 12 -63 16 -93 3 -30 18
-97 32 -148 l26 -94 -23 -100 c-18 -81 -22 -118 -17 -189 5 -71 2 -102 -14
-156 -119 -408 -139 -675 -80 -1042 17 -107 31 -212 31 -234 0 -22 -16 -88
-35 -148 -65 -202 -68 -294 -19 -639 26 -182 32 -301 21 -411 -7 -71 -77 -214
-141 -289 -48 -56 -65 -102 -47 -124 15 -18 60 -26 88 -15 17 6 23 5 23 -6 0
-8 15 -17 36 -21 52 -10 140 35 159 82 8 18 21 49 29 67 7 18 30 44 50 57 19
14 41 37 47 52 12 28 5 108 -12 139 -5 10 -4 20 3 27 7 7 7 30 -2 78 -22 118
-4 249 66 474 l39 125 0 185 c1 155 4 191 18 223 13 27 21 84 28 185 9 141 12
154 69 322 61 179 69 219 85 448 6 81 9 92 26 92 10 0 19 -3 19 -7 1 -50 32
-334 40 -366 6 -23 33 -105 59 -182 45 -128 50 -153 61 -290 8 -100 19 -169
32 -208 19 -52 20 -73 15 -196 -7 -155 0 -199 57 -382 47 -151 60 -240 52
-364 -6 -101 -7 -121 -5 -152 1 -10 -3 -41 -8 -70 -12 -65 0 -97 55 -140 30
-25 45 -47 59 -90 18 -54 23 -60 76 -87 44 -22 64 -27 92 -22 20 4 35 13 35
21 0 11 7 12 32 5 45 -13 82 6 86 45 2 24 -9 45 -53 100 -73 91 -139 219 -131
257 3 15 -2 50 -10 77 -16 47 -15 60 20 322 37 284 45 436 25 531 -6 29 -27
104 -47 167 l-36 115 18 115 c64 419 66 467 40 704 -16 152 -35 240 -90 435
-31 110 -33 128 -23 165 13 49 7 119 -21 236 l-20 83 24 81 c13 45 27 107 31
137 3 30 11 77 18 104 l13 49 40 -84 c27 -56 46 -116 58 -177 35 -193 71 -266
211 -431 68 -80 112 -165 124 -240 5 -31 23 -88 39 -126 17 -39 38 -95 46
-125 21 -73 52 -122 74 -118 19 5 19 2 -7 98 -11 39 -16 68 -10 65 5 -4 9 -13
9 -20 0 -29 55 -147 72 -156 33 -18 49 10 29 49 -11 19 -51 155 -51 169 1 4
12 -19 27 -52 36 -84 75 -139 101 -143 36 -5 36 22 1 93 -17 36 -30 68 -27 70
3 3 20 -21 39 -52 34 -59 73 -81 85 -50 6 17 -61 148 -111 217 -40 55 -46 75
-10 36 19 -21 33 -26 70 -26 36 0 45 3 45 18 0 9 -16 27 -34 39 -19 12 -42 35
-51 50 -10 18 -46 44 -92 68 l-76 40 -39 120 c-21 66 -49 161 -63 210 -44 164
-66 214 -122 276 l-36 39 2 93 c2 94 -21 198 -53 240 -10 13 -12 40 -8 105 3
66 0 103 -13 147 -24 85 -68 167 -108 202 -33 29 -118 63 -196 79 -21 4 -88
46 -167 104 l-132 98 -4 69 c-3 59 0 72 20 100 13 17 26 48 29 70 3 21 13 47
23 58 18 20 40 96 40 135 0 13 -8 24 -19 27 -15 4 -21 17 -26 66 -12 118 -17
138 -49 180 -52 68 -173 118 -236 98z m125 -35 c57 -27 108 -77 125 -121 6
-16 14 -69 17 -117 5 -74 9 -88 23 -88 25 0 29 -8 20 -43 -4 -18 -11 -44 -14
-59 -4 -18 -11 -25 -20 -22 -10 4 -15 -9 -20 -48 -10 -74 -42 -123 -117 -181
-47 -35 -133 -38 -185 -6 -57 35 -112 114 -125 179 -7 39 -15 57 -24 54 -8 -3
-16 14 -24 52 -15 75 -14 77 9 71 22 -6 25 7 34 131 7 107 54 170 152 206 56
21 92 19 149 -8z m-202 -708 c38 -68 56 -125 82 -258 10 -47 21 -93 26 -102 6
-11 6 -18 0 -18 -13 0 -72 98 -112 186 -27 57 -33 85 -37 162 -2 50 -2 92 1
92 3 0 22 -28 40 -62z m256 -157 c-25 -62 -93 -189 -113 -209 -15 -15 36 240
59 296 9 20 28 57 43 82 l27 45 3 -79 c2 -64 -2 -91 -19 -135z m-150 141 c42
-3 67 1 91 13 l33 17 -21 -34 c-24 -39 -56 -150 -73 -260 -7 -43 -15 -76 -17
-74 -2 3 -14 58 -27 123 -27 133 -40 176 -67 215 -24 35 -23 46 2 23 14 -12
41 -20 79 -23z m-109 -214 c23 -46 45 -87 51 -92 18 -19 8 -23 -33 -15 -24 4
-101 8 -171 9 -71 0 -126 4 -123 8 3 5 -1 20 -9 35 l-14 27 122 90 122 91 7
-35 c4 -20 26 -73 48 -118z m535 -48 c-8 -9 -15 -24 -15 -32 0 -14 -23 -17
-152 -20 -84 -3 -160 -8 -169 -12 -11 -5 2 30 37 101 30 59 56 119 58 133 3
14 5 26 5 27 1 1 57 -39 126 -89 112 -83 123 -94 110 -108z m-828 -28 c8 -33
-25 -134 -79 -242 l-43 -85 -115 -57 c-82 -40 -117 -53 -122 -45 -16 24 -8
142 14 210 47 150 97 199 245 236 78 20 91 18 100 -17z m996 -2 c77 -29 111
-60 146 -133 45 -95 65 -186 55 -251 l-9 -54 -90 39 c-133 58 -148 71 -194
169 -62 131 -85 209 -71 238 10 22 15 24 58 19 26 -3 73 -15 105 -27z m-626
-66 l28 -21 3 -184 2 -185 -82 -49 -83 -50 -91 1 c-50 0 -104 6 -120 13 -29
11 -87 89 -128 169 -16 31 -16 34 2 60 26 39 101 206 109 242 l6 32 163 -4
c147 -3 165 -5 191 -24z m458 -26 c9 -29 39 -99 67 -156 l50 -102 -50 -83
c-28 -47 -62 -89 -79 -99 -18 -11 -62 -20 -115 -24 l-87 -7 -95 54 -96 54 0
176 c0 134 3 180 14 194 24 34 74 43 227 44 l147 1 17 -52z m-911 -413 c-10
-99 -29 -166 -71 -249 l-40 -79 4 59 c2 32 10 100 18 149 8 50 17 126 20 170
9 114 12 117 46 60 27 -45 29 -55 23 -110z m1061 78 c3 -43 13 -118 20 -168 7
-49 16 -123 19 -164 l6 -73 -36 68 c-38 73 -71 188 -76 265 -2 34 4 60 22 98
14 28 28 51 32 51 3 0 9 -35 13 -77z m-1142 5 c-20 -234 -51 -321 -160 -438
l-67 -72 -14 58 c-8 33 -15 109 -16 169 0 101 2 115 28 172 16 35 35 68 43 75
13 10 169 85 184 87 3 1 4 -23 2 -51z m1223 24 c32 -16 73 -34 90 -41 24 -9
40 -29 65 -79 31 -60 34 -75 37 -171 3 -92 -9 -205 -26 -235 -9 -15 -128 123
-162 186 -17 32 -37 88 -45 125 -15 72 -31 243 -23 243 2 0 31 -13 64 -28z
m-1116 -164 c-5 -35 -10 -83 -11 -108 0 -41 -1 -43 -12 -22 -8 18 -8 41 1 93
7 38 12 84 12 102 1 26 2 29 11 15 6 -12 6 -38 -1 -80z m444 -149 c-14 -16
-32 -19 -101 -19 -71 0 -86 3 -104 21 -44 44 -1 106 118 173 45 26 86 52 90
59 4 6 9 -39 11 -102 2 -95 0 -117 -14 -132z m233 116 c44 -36 55 -91 23 -117
-30 -24 -164 -26 -198 -2 -21 14 -22 23 -22 129 l0 113 83 -48 c45 -26 96 -60
114 -75z m293 -89 l-7 -31 -6 40 c-5 31 -17 133 -19 165 -3 43 8 16 22 -54 10
-51 14 -101 10 -120z m-880 97 c0 -12 4 -33 9 -46 8 -19 6 -27 -5 -31 -30 -12
-86 71 -77 116 l5 26 34 -22 c20 -13 33 -29 34 -43z m816 -30 c-19 -36 -34
-53 -45 -51 -9 2 -16 9 -15 16 1 6 2 29 3 50 1 30 8 41 34 58 31 20 32 20 42
1 7 -14 2 -33 -19 -74z m-674 7 c-16 -24 -22 -45 -20 -67 2 -18 3 -33 1 -33
-1 0 -18 11 -38 24 -20 14 -40 26 -46 28 -6 2 -14 23 -19 46 l-7 43 76 -3 77
-3 -24 -35z m602 3 c-3 -21 -13 -42 -21 -48 -9 -5 -31 -20 -50 -33 l-35 -23 6
26 c7 27 -5 57 -36 91 l-19 21 81 1 81 2 -7 -37z m-771 -101 c21 -53 21 -52
-2 -52 -34 0 -62 62 -53 118 l4 33 17 -28 c10 -15 25 -47 34 -71z m877 67 c0
-57 -21 -109 -47 -115 -13 -4 -26 -4 -29 -1 -7 7 58 147 68 147 5 0 8 -14 8
-31z m-764 -64 c47 -31 53 -38 44 -54 -5 -11 -10 -35 -10 -54 l0 -35 -58 57
c-51 49 -82 88 -82 105 0 4 22 12 43 15 4 0 33 -15 63 -34z m692 20 c10 -9
-25 -61 -68 -102 -63 -58 -69 -61 -63 -28 3 14 -2 36 -12 51 -9 14 -15 28 -13
30 3 2 29 17 59 34 46 25 79 30 97 15z m-1016 -110 l-7 -80 -65 -22 c-70 -23
-87 -21 -55 5 32 26 100 116 115 151 7 17 14 30 15 29 2 -2 0 -39 -3 -83z
m637 71 c17 -20 -13 -44 -34 -26 -11 9 -12 15 -2 25 15 18 22 18 36 1z m625
-35 c14 -26 48 -73 76 -104 l50 -55 -50 13 c-90 24 -98 33 -102 120 -2 41 -2
75 -1 75 2 0 14 -22 27 -49z m-1084 -16 c0 -5 7 -22 14 -37 12 -23 13 -28 1
-28 -20 0 -45 28 -46 53 0 12 -2 33 -3 46 l-3 23 18 -23 c10 -13 19 -28 19
-34z m913 -16 c-9 -32 -36 -59 -48 -47 -4 3 6 32 22 64 21 43 29 53 31 37 2
-11 -1 -36 -5 -54z m-501 34 c15 -13 18 -31 18 -99 0 -108 -11 -117 -126 -110
-100 6 -114 20 -114 111 0 48 5 68 21 89 19 24 26 26 101 26 62 0 86 -4 100
-17z m258 -3 c16 -16 20 -33 20 -94 0 -80 -10 -101 -55 -112 -35 -9 -154 2
-170 16 -11 9 -15 35 -15 96 0 105 9 114 122 114 65 0 81 -3 98 -20z m-540
-64 c40 -39 50 -57 50 -82 0 -18 7 -40 16 -48 8 -9 13 -20 10 -25 -4 -5 -42
25 -85 67 -106 104 -125 142 -71 139 22 -2 45 -16 80 -51z m725 18 c-14 -35
-165 -185 -178 -177 -4 2 2 16 13 30 11 14 20 39 20 55 0 20 13 43 45 77 38
41 52 49 80 48 l34 -1 -14 -32z m-1246 -120 c2 -65 -24 -133 -135 -355 -79
-159 -107 -207 -119 -203 -8 4 -15 7 -15 8 0 1 14 42 30 92 17 49 46 145 65
214 48 178 70 231 118 286 40 46 42 47 48 23 4 -13 7 -42 8 -65z m1296 53 c-6
-22 -32 -44 -41 -34 -2 1 6 18 17 36 23 37 33 36 24 -2z m475 -83 c11 -25 32
-86 46 -137 14 -51 46 -157 71 -237 42 -132 45 -162 17 -148 -12 5 -210 410
-229 466 -16 51 -15 113 3 160 7 20 62 -42 92 -104z m-1371 80 c6 -15 9 -29 7
-32 -10 -9 -36 20 -36 39 0 27 15 23 29 -7z m106 -54 l70 -69 -3 -67 -4 -67
-36 61 c-21 34 -56 92 -79 130 -24 37 -43 71 -43 75 0 21 32 -1 95 -63z m749
58 c-18 -33 -148 -244 -153 -250 -3 -4 -6 25 -6 64 l1 71 68 63 c61 58 109 85
90 52z m-1046 -40 c-2 -15 -25 -33 -80 -62 -42 -23 -90 -51 -107 -64 -17 -12
-31 -21 -31 -19 0 11 34 104 43 115 5 6 21 12 36 12 14 1 49 9 76 19 66 24 67
24 63 -1z m1300 2 c29 -11 65 -20 80 -20 33 -1 62 -21 62 -44 0 -9 7 -33 15
-53 l15 -35 -23 16 c-12 9 -53 33 -91 54 -72 38 -116 73 -116 92 0 13 -4 13
58 -10z m-1081 -30 c10 -10 48 -68 83 -127 35 -59 72 -117 82 -129 17 -19 17
-22 3 -34 -19 -16 -19 -63 0 -125 8 -27 13 -51 11 -53 -9 -8 -86 108 -111 168
-28 67 -78 203 -101 278 -11 36 -11 42 1 42 8 0 22 -9 32 -20z m847 -7 c-11
-45 -94 -274 -120 -328 -13 -28 -40 -70 -60 -93 -37 -44 -54 -50 -35 -13 22
41 31 114 16 143 -11 23 -11 29 1 39 8 6 14 15 14 20 0 15 131 223 152 242 29
25 39 21 32 -10z m-429 -42 c-12 -12 -17 -12 -30 -1 -14 12 -14 15 1 31 16 18
18 18 30 1 10 -14 10 -20 -1 -31z m-659 -35 c-12 -42 -29 -68 -69 -108 -63
-64 -111 -134 -132 -197 -16 -45 -25 -64 -70 -148 -13 -24 -25 -48 -27 -55 -3
-9 -12 -9 -37 1 -21 9 -30 19 -27 28 7 17 149 225 269 392 49 68 91 130 94
138 3 7 8 12 10 9 3 -2 -2 -29 -11 -60z m1347 -34 c26 -37 94 -134 152 -217
57 -82 118 -169 135 -193 18 -24 30 -45 28 -46 -6 -4 -59 -26 -63 -26 -8 0
-84 149 -99 196 -22 68 -61 127 -133 205 -46 48 -65 78 -77 118 -19 64 -19 73
-3 48 7 -11 33 -49 60 -85z m-1379 61 c-9 -15 -42 -61 -73 -103 -31 -41 -105
-148 -166 -237 -60 -89 -116 -162 -122 -163 -7 0 -13 2 -13 5 0 13 193 399
206 412 15 15 173 113 182 113 2 0 -4 -12 -14 -27z m1429 -22 c46 -27 89 -56
95 -64 7 -8 57 -104 111 -213 105 -212 116 -271 27 -137 -48 71 -207 297 -290
411 -21 28 -35 52 -32 52 3 0 43 -22 89 -49z m-781 22 c15 -13 18 -31 18 -98
0 -50 -5 -86 -12 -93 -8 -8 -46 -12 -104 -12 -114 0 -124 9 -124 112 0 96 14
108 122 108 62 0 86 -4 100 -17z m258 -3 c16 -16 20 -33 20 -94 0 -101 -6
-106 -124 -106 -58 0 -96 4 -104 12 -19 19 -16 167 5 190 25 28 175 26 203 -2z
m-615 -157 c40 -116 93 -210 139 -249 32 -28 48 -55 82 -140 24 -58 55 -125
69 -150 l26 -44 69 0 c70 0 70 0 94 38 14 20 44 84 67 142 34 84 54 117 96
162 55 58 101 145 138 261 22 67 27 62 50 -52 20 -96 16 -181 -10 -231 -28
-53 -404 -430 -430 -430 -21 0 -212 181 -370 352 -102 109 -110 151 -69 346 9
39 17 72 19 72 1 0 15 -35 30 -77z m1201 -136 c20 -38 34 -70 32 -72 -9 -9
-139 165 -158 211 l-20 49 55 -60 c30 -33 71 -91 91 -128z m-1512 121 c-26
-51 -135 -191 -143 -183 -15 16 134 232 162 234 4 1 -5 -23 -19 -51z m714 -55
c-7 -9 -14 -9 -28 0 -18 10 -18 13 -3 29 15 17 17 17 29 0 8 -11 9 -21 2 -29z
m-44 -9 c14 -13 16 -50 16 -254 l0 -238 -27 7 c-35 9 -66 64 -132 231 -62 160
-75 217 -55 248 13 20 22 22 99 22 63 0 87 -4 99 -16z m251 -1 c25 -25 12 -86
-52 -248 -82 -206 -96 -232 -133 -237 l-30 -5 0 235 c0 285 -6 272 116 272 64
0 86 -4 99 -17z m-620 -255 l26 -29 -29 -47 c-51 -80 -109 -203 -134 -282 -43
-138 -27 -405 40 -668 19 -74 19 -74 -3 -134 l-22 -60 -28 174 c-34 214 -41
358 -26 525 14 147 26 208 83 427 36 138 43 156 54 141 8 -10 25 -31 39 -47z
m893 -118 c60 -226 73 -313 79 -520 5 -165 2 -204 -21 -360 -37 -246 -34 -237
-58 -161 -17 55 -18 70 -8 110 62 244 87 529 56 649 -23 89 -70 199 -126 291
-47 79 -47 80 -28 98 11 10 27 30 36 45 11 19 18 24 23 15 3 -6 25 -82 47
-167z m795 6 c32 -32 56 -60 54 -62 -11 -12 -80 12 -94 32 -11 18 -21 22 -39
18 -29 -7 -76 10 -121 43 -25 18 -33 20 -33 9 0 -16 93 -66 125 -66 25 0 76
-69 135 -182 71 -136 42 -128 -50 15 -31 48 -59 85 -62 81 -11 -11 22 -101 72
-196 12 -23 16 -39 10 -43 -16 -10 -52 37 -95 124 -21 44 -45 81 -52 81 -7 0
-13 -3 -13 -7 0 -18 43 -161 56 -187 15 -30 13 -43 -6 -31 -16 10 -58 97 -71
149 -13 51 -26 66 -35 41 -6 -15 14 -113 31 -157 4 -11 3 -18 -4 -18 -13 0
-50 80 -57 125 -3 17 -21 64 -40 106 -39 86 -56 179 -33 180 8 0 43 14 78 32
l63 32 62 -30 c38 -18 85 -53 119 -89z m-2322 78 l71 -35 -4 -49 c-3 -27 -19
-78 -36 -112 -17 -35 -36 -85 -42 -111 -12 -54 -46 -127 -59 -127 -5 0 -3 17
5 39 7 21 16 62 20 91 6 42 4 52 -7 48 -7 -2 -17 -20 -22 -39 -13 -52 -65
-159 -77 -159 -13 0 -13 15 -1 38 13 22 51 156 51 175 0 40 -20 18 -64 -68
-26 -51 -56 -101 -66 -110 -25 -23 -35 -2 -16 32 40 71 87 203 72 203 -2 0
-34 -45 -71 -100 -36 -56 -70 -98 -75 -95 -11 7 -7 18 34 93 68 125 110 182
135 182 29 0 104 35 122 56 22 26 1 27 -30 1 -36 -30 -95 -51 -123 -44 -13 4
-27 -2 -42 -18 -22 -24 -96 -44 -96 -26 0 6 13 17 29 26 17 8 38 29 48 46 17
29 126 95 161 98 7 1 44 -15 83 -35z m682 -21 c3 -5 10 -60 16 -123 7 -63 25
-181 41 -263 17 -81 30 -156 30 -168 0 -11 -20 -95 -44 -187 -25 -92 -47 -189
-51 -217 -7 -52 -52 -165 -66 -165 -12 0 -46 113 -74 243 -32 157 -59 389 -50
452 11 83 63 224 123 333 54 98 65 111 75 95z m765 -80 c56 -99 94 -191 118
-285 20 -77 14 -222 -16 -403 -27 -159 -79 -355 -95 -355 -15 0 -57 111 -70
182 -8 45 -33 151 -56 236 l-43 155 18 81 c29 136 54 289 61 377 11 128 15
129 83 12z m-104 -62 c-8 -62 -31 -192 -51 -290 -34 -167 -36 -189 -42 -431
-4 -155 -10 -262 -17 -274 -9 -15 -12 -4 -17 55 -3 41 -11 124 -18 184 -20
188 -1 367 63 585 17 58 38 140 48 183 15 66 36 115 45 105 2 -2 -4 -54 -11
-117z m-599 41 c4 -26 23 -101 42 -167 73 -252 95 -441 73 -640 -6 -60 -14
-141 -17 -179 -5 -56 -8 -65 -17 -50 -6 12 -13 121 -17 279 -6 247 -8 268 -42
430 -35 165 -57 309 -57 368 0 47 26 16 35 -41z m112 -68 c1 0 -8 -26 -21 -58
-13 -32 -26 -54 -29 -49 -3 5 -17 53 -31 107 l-25 99 52 -49 c28 -27 53 -49
54 -50z m424 -14 l-28 -104 -25 54 -25 55 50 52 c28 29 52 51 54 50 1 -2 -10
-50 -26 -107z m-286 -165 c-3 -16 -9 -88 -15 -160 -10 -134 -28 -219 -80 -365
-29 -84 -29 -85 -22 -30 19 145 0 371 -44 528 -16 56 -13 74 23 159 l13 33 65
-68 c56 -58 64 -71 60 -97z m225 98 l22 -58 -21 -90 c-42 -182 -56 -360 -39
-495 6 -45 -1 -30 -38 80 -39 119 -46 154 -59 295 -8 88 -16 170 -17 182 -2
16 15 40 57 83 33 33 63 60 66 60 4 0 17 -26 29 -57z m1060 6 c0 -6 -4 -7 -10
-4 -5 3 -10 11 -10 16 0 6 5 7 10 4 6 -3 10 -11 10 -16z m-1487 -496 c11 -219
9 -267 -13 -326 -20 -53 -64 -107 -76 -94 -15 15 -15 203 -1 267 31 136 72
290 78 290 3 0 9 -61 12 -137z m577 -216 c6 -44 9 -91 6 -105 -2 -15 -7 -44
-11 -64 -6 -37 -6 -38 -30 -22 -13 8 -34 36 -46 62 -22 45 -23 55 -21 256 2
116 6 214 9 219 8 14 80 -253 93 -346z m90 -201 c3 3 12 24 21 47 l17 42 16
-39 c32 -76 37 -156 20 -273 -13 -88 -15 -165 -11 -423 5 -290 7 -326 32 -450
15 -74 28 -157 29 -185 3 -62 68 -196 132 -271 52 -62 69 -100 53 -120 -13
-16 -57 -18 -92 -5 -29 11 -42 4 -26 -16 18 -21 -49 -17 -94 6 -57 29 -66 40
-78 87 -8 32 -25 55 -65 92 -60 55 -65 73 -40 157 11 33 12 52 4 64 -7 12 0
51 27 151 33 121 38 151 42 290 9 285 -20 407 -130 541 -57 70 -74 110 -83
198 -5 54 -3 80 10 111 9 22 16 53 16 68 0 25 2 23 19 -14 10 -23 33 -51 51
-64 39 -28 47 -20 56 62 l6 57 31 -59 c17 -33 34 -57 37 -54z m-775 12 c3 -21
10 -38 15 -38 19 0 80 63 87 89 6 24 8 22 21 -24 23 -79 26 -169 7 -227 -9
-27 -41 -82 -71 -121 -63 -83 -100 -156 -114 -225 -6 -26 -13 -119 -16 -207
-6 -169 3 -241 56 -434 22 -82 25 -117 11 -126 -6 -3 -4 -19 5 -40 8 -19 14
-53 14 -76 0 -38 -5 -47 -49 -88 -36 -33 -56 -63 -71 -104 -12 -32 -29 -61
-38 -63 -10 -3 -29 -12 -44 -20 -14 -8 -40 -14 -58 -14 -26 0 -30 3 -25 19 5
18 3 18 -34 9 -55 -14 -91 -4 -91 25 0 25 18 54 67 109 49 56 126 215 119 247
-2 14 1 49 9 76 59 213 83 759 44 1000 -16 98 -13 169 13 245 l21 65 18 -43
c10 -23 22 -42 27 -42 5 0 20 23 33 51 24 49 24 50 31 22 4 -15 10 -45 13 -65z
m-156 -593 c0 -148 -6 -297 -14 -365 -8 -63 -14 -124 -15 -134 0 -39 -8 -9
-19 74 -6 47 -15 114 -21 150 -19 131 -25 208 -25 350 0 137 2 151 34 250 l34
105 13 -90 c8 -56 13 -184 13 -340z m1066 324 c25 -81 28 -98 41 -204 6 -48
-6 -196 -25 -335 -23 -162 -33 -237 -33 -269 0 -48 -15 -25 -22 34 -29 262
-29 755 0 848 8 26 11 21 39 -74z m-836 -447 c-64 -220 -78 -282 -79 -362 -1
-52 -3 -60 -11 -41 -35 88 -49 328 -30 510 11 105 41 179 108 267 l38 49 3
-158 c2 -152 1 -162 -29 -265z m626 262 c58 -114 70 -442 22 -626 -15 -54 -30
-77 -21 -30 9 43 -10 140 -62 319 -55 190 -58 212 -49 368 l7 127 38 -54 c22
-29 50 -76 65 -104z"/>
<path d="M1741 5584 c0 -11 3 -14 6 -6 3 7 2 16 -1 19 -3 4 -6 -2 -5 -13z"/>
<path d="M1375 4549 c-4 -6 -5 -12 -2 -15 2 -3 7 2 10 11 7 17 1 20 -8 4z"/>
<path d="M1275 4381 c-3 -5 -2 -12 3 -15 5 -3 9 1 9 9 0 17 -3 19 -12 6z"/>
<path d="M1405 4400 c-3 -6 1 -7 9 -4 18 7 21 14 7 14 -6 0 -13 -4 -16 -10z"/>
<path d="M2245 4220 c-3 -6 1 -7 9 -4 18 7 21 14 7 14 -6 0 -13 -4 -16 -10z"/>
<path d="M2259 4193 c-13 -16 -12 -17 4 -4 9 7 17 15 17 17 0 8 -8 3 -21 -13z"/>
<path d="M1096 3997 c3 -10 9 -15 12 -12 3 3 0 11 -7 18 -10 9 -11 8 -5 -6z"/>
<path d="M1223 3995 c0 -8 4 -12 9 -9 5 3 6 10 3 15 -9 13 -12 11 -12 -6z"/>
<path d="M1114 3888 c0 -10 1 -18 3 -18 1 0 7 8 12 18 7 13 6 19 -2 19 -7 0
-13 -9 -13 -19z"/>
<path d="M1530 3870 c0 -5 5 -10 11 -10 5 0 7 5 4 10 -3 6 -8 10 -11 10 -2 0
-4 -4 -4 -10z"/>
<path d="M1079 3593 c-13 -16 -12 -17 4 -4 9 7 17 15 17 17 0 8 -8 3 -21 -13z"/>
<path d="M2129 3223 c-13 -16 -12 -17 4 -4 16 13 21 21 13 21 -2 0 -10 -8 -17
-17z"/>
<path d="M2019 3003 c-13 -16 -12 -17 4 -4 9 7 17 15 17 17 0 8 -8 3 -21 -13z"/>
<path d="M1810 3101 c0 -6 4 -13 10 -16 6 -3 7 1 4 9 -7 18 -14 21 -14 7z"/>
<path d="M886 3093 c-6 -14 -5 -15 5 -6 7 7 10 15 7 18 -3 3 -9 -2 -12 -12z"/>
<path d="M1791 2624 c0 -11 3 -14 6 -6 3 7 2 16 -1 19 -3 4 -6 -2 -5 -13z"/>
<path d="M2036 2901 c-3 -5 1 -11 9 -14 9 -4 12 -1 8 9 -6 16 -10 17 -17 5z"/>
<path d="M2190 1894 c0 -54 31 -134 52 -134 11 0 10 18 -2 25 -15 9 -40 73
-40 102 0 13 5 33 10 44 8 15 7 19 -5 19 -12 0 -15 -12 -15 -56z"/>
<path d="M2360 1790 c-8 -6 -25 -10 -37 -10 -13 0 -23 -5 -23 -11 0 -13 59 -4
74 11 14 14 3 21 -14 10z"/>
<path d="M2180 1746 c0 -2 7 -9 15 -16 13 -11 14 -10 9 4 -5 14 -24 23 -24 12z"/>
<path d="M1577 1906 c7 -56 -2 -91 -28 -117 -23 -23 -18 -39 6 -19 38 32 55
98 39 158 -11 39 -22 24 -17 -22z"/>
<path d="M1518 1823 c7 -3 16 -2 19 1 4 3 -2 6 -13 5 -11 0 -14 -3 -6 -6z"/>
<path d="M1400 1792 c0 -12 46 -32 71 -32 11 0 17 5 14 10 -3 6 -17 10 -30 10
-13 0 -27 5 -30 10 -8 12 -25 13 -25 2z"/>
<path d="M2190 1556 c0 -2 8 -10 18 -17 15 -13 16 -12 3 4 -13 16 -21 21 -21
13z"/>
<path d="M865 2741 c-3 -5 -2 -12 3 -15 5 -3 9 1 9 9 0 17 -3 19 -12 6z"/>
</g>
</svg>
